<svg height="2585" viewBox="0 0 4309 2585" width="4309" xmlns="http://www.w3.org/2000/svg"><text font-family="&quot;Day Roman&quot;" font-size="200" transform="matrix(1.838 0 0 1.84 1934.995 1524.656)">Juniper</text><text font-family="&quot;Day Roman&quot;" font-size="100" transform="matrix(1.598 0 0 1.598 2156.163 1790.697)">Home Renovations</text><path d="m1864.75 621.952c32.42 3.616 53.5 22.16 10.31 108.264 41.13-20.714 49.96-4.2 56.72 12.888 24.6-11.555 51.88-16.8 38.67 64.443 61.25-6.371 39.91 36.6 36.09 59.288 11.08-.147 19.95 32.651-33.52 48.976 4.69 12.232-13.14 31.85-61.87 46.4 15.9 3.645 45.08 15.924 43.83 36.088 20.16-31.141 40.06-22.7 43.82-15.466 32.13-38.255 56.58 3.381 54.14 20.618 51.57-3.865 66.95 37.65-46.4 59.29-43.77 8.36-51.93-10.48-56.72-15.46-18.75 4.61-48.66-15.96-67.03-10.32v10.32c25.04 11.95 54.03 29.45 72.19 48.97 22.7-18.54 153.5-39.58 177.8 2.55 32.16-18.42 69.27 5.82 67.11 15.5 12.63-3.69 24.89-6.43 38.94 10.5 11.71-7.11 66.3 12.11 67.04 22 8.54-1.2 18.27-.12 27.01 1 21.92 2.82 35.5 16.85 12.01 18-18.1 11.91-74.07 17.59-88.05 9.01-17.25 14.24-68.14 20.94-93.04-4-27.58 16.31-76.41-7.67-138.07-30.01a145.381 145.381 0 0 0 -55.28-8.46c14.67 15.5 8.26 31.78-7.74 41.24-34.86 20.63-87.45 26.41-118.59 51.56 53.04.96 90.78 22.36 25.78 25.77 9.28 11.9-13.14 17.05-33.51 18.05-11.49-9.13-15.56-13.59-38.67-2.58-41.42 18.29 61.71 106.89 48.98 183.02-14.96 89.47-135.38 167.62 48.98 255.19 40.39 19.19 102.37 65.84 126.33 100.53 19.09 27.66 4.53 61.76 26.73 75.78 215.64 1.36 1550.67.84 1492.73 0 11.68.17 8.28 15.02 0 15.01-600.86-.92-2766.012.43-2826.375 0-9.307-.43-10.6-15.03 1-15.01 43.183-.38 187.771-.48 807.394 1 210.79.51 149.94-174.69 155.64-154.11-31.66-114.34-19.91-151.16 10.31-193.33 13.24-18.47 46.25-27.72 30.93-54.13s-102.35-42.86-193.35-38.66c-34.07 1.57-127.95 5.71-110.86 23.2 13.45 17.39 6.88 29.66 5.16 38.66-33.77 19.15-44.26 26.9-121.17 28.36-136.34 2.58-186.68 4.23-306.788-5.16-117.248 41.91-199.089 15.66-213.978 0-16.12 23.22-126.47 40.44-134.059 0-13-.54-33.515-7.73-33.515-7.73s-27.811 9.42-46.4 2.58c-8.752-3.23-20.624-18.05-20.624-18.05s-21.787 2.66-25.781-15.47c4.616-9.92 19.72-14.78 46.4-15.46 59.96-21.1 105.714-27.82 116.013-7.73 3.758-2.73 21.649-4.79 25.78-7.74 54.854-50.92 88.513-41.24 105.7-41.24 6.012-6.88 10.279-18.31 61.873-18.05 87.726-70.1 152.008-30.65 149.528-10.31 44.6-11.91 56.85 6.74 64.45 15.47 7.57-2.02 18.9-.9 25.78 5.16 14.06.49 25.51 14.25 23.2 30.93 30.99 31.87-13.6 48.63-30.93 59.29 32.56.87 36.42 3.61 103.12 0 75.21-4.08 157.74-4.14 141.79-61.87-5.71-17.53 11.19-28.21 46.41-33.51 198.55-29.9 320.09 6 342.88 7.73 8.14-14.97 12.08-73.02-69.61-92.79-41.39-10.02-69.6-13.53-100.54-51.56-7.46-1.73-31.22 1.84-59.3-5.15-17.58 6.54-87.49 9.75-118.59-5.16-18.66 4.87-113.61 32.12-221.64-4.25-37.6 3.39-94.91-22.09-71.04-52.01 23.42 6.02 37.89-6.84 70.97 2.13 7.08-8.84 19.74-24.87 56.72-7.73 22.34-.86 71.51-10.51 87.65 5.15 17.95-15.58 30.73-10.04 36.09-7.73 40.73-41.84 72.47-13.67 77.34-2.58 42.71-27.64 62.02-17.38 64.46-5.16 7.12-4.61 11.39-6.14 25.78-5.15-84.64-83.12 86.16-84.48 30.93-146.93-9.13 4.43-41.93 6.87-48.98-5.16-25.63 15.24-68.96 13.97-82.5 0-18.42 9.77-44.07 25.26-134.06 28.36-95.36 35-118.77-7.77-116.01-10.31-63.11-6.13-59.01 11.22-90.23 15.46-68.12 9.26-84.582-15.21-92.812-23.2-23.262 19.07-92.113 17.29-126.325 10.32-42.2-7.91 21.425-37.21 59.3-36.09 46.567-65.213 114.521-53.5 134.061-48.98 25.26-42.475 65.82-6.5 77.34 2.578 17.79-27.493 51.84-51.965 97.97-51.554-8.6-12.547-6.97-24.84 0-30.933-17.75-48.495 19.68-63.128 30.93-56.71-3.45-44.711 42.52-47.96 61.88-43.821-3.3-27.442 24.09-91.729 113.43-69.6 7.72-16.479 40.67-18.837 77.34-7.733-3.06-57.015 76.12-67.134 105.7-56.71 5.39-27.854 42.1-58.309 59.31-57-.92-15.391 21.48-23.042 30.92-17.75 15.91-23.314 69.51-37.722 92.81 7.733 17.988-7.08 73.348-12.784 64.458 41.241zm-95.39 577.408c9.23-4.21 27.55-29.93 87.65-36.09 29.73-3.04 87.18-13.56 61.87-41.24-17.61-16.91-23.89-20.62-28.35-23.2-17.75 3.72-124.93 17.13-162.42 10.31-45.79-9.57-5.63-32.53-10.31-41.24-3.6-5.17-3.47-5.33-10.32-7.74-24.67 33.15-96.96-7.53-110.85-23.2 31.23 57.19-82.77 81.47-28.36 121.16 10.61-17.88 59.57-25.04 67.03-5.16 14.82-1.79 22.11 2.76 23.2 7.73 64.13 2.49 101.06 1.12 92.81 38.67 4.44.28 14.18 1.6 18.05 0zm41.25-141.77c-12.18 8-40.11 5.48-59.3 5.15.42 9.65-.87 15.8-5.15 23.2 22.28 3.16 94.41 2.13 103.12-12.89-2.08-2.63-.92-.7-2.58-5.15-18.45.24-24.58-4.6-36.09-10.31zm-95.39 195.9c-4.98 3.32-58.36 11.03-77.34 2.58 10.53 13.25 39.02 16.81 72.18 15.47-2.84-4.13 1.71-11.74 5.16-18.05z" fill-rule="evenodd"/></svg>