<svg height="4799" viewBox="0 0 7999 4799" width="8000" xmlns="http://www.w3.org/2000/svg" xmlns:xlink="http://www.w3.org/1999/xlink"><symbol id="a" overflow="visible"><path d="m66.96875-498.046875h67.3125v463.359375c0 60.039062-11.386719 103.625-34.15625 130.75-22.773438 27.132812-59.367188 40.703125-109.78125 40.703125h-25.65625v-56.703125h20.984375c29.769531 0 50.757813-8.34375 62.96875-25.03125 12.21875-16.679688 18.328125-46.585938 18.328125-89.71875zm0 0"/></symbol><symbol id="b" overflow="visible"><path d="m57.96875-147.453125v-226.171875h61.3125v223.84375c0 35.367188 6.882812 61.886719 20.65625 79.5625 13.78125 17.679688 34.441406 26.515625 61.984375 26.515625 33.09375 0 59.242187-10.5625 78.453125-31.6875 19.21875-21.125 28.828125-49.925781 28.828125-86.40625v-211.828125h61.3125v373.625h-61.3125v-57.375c-14.875 22.6875-32.148437 39.539062-51.8125 50.546875-19.65625 11-42.480469 16.5-68.46875 16.5-42.875 0-75.421875-13.34375-97.640625-40.03125-22.210938-26.6875-33.3125-65.71875-33.3125-117.09375zm154.28125-235.171875"/></symbol><symbol id="c" overflow="visible"><path d="m374.515625-225.5v225.5h-61.3125v-223.5c0-35.363281-6.886719-61.828125-20.65625-79.390625-13.773437-17.570313-34.429687-26.359375-61.96875-26.359375-33.105469 0-59.210937 10.5625-78.3125 31.6875-19.105469 21.125-28.65625 49.929688-28.65625 86.40625v211.15625h-61.640625v-373.625h61.640625v58.046875c14.664063-22.457031 31.9375-39.242187 51.8125-50.359375 19.882813-11.125 42.820313-16.6875 68.8125-16.6875 42.875 0 75.304687 13.292969 97.296875 39.875 21.988281 26.574219 32.984375 65.65625 32.984375 117.25zm0 0"/></symbol><symbol id="d" overflow="visible"><path d="m64.3125-373.625h61.296875v373.625h-61.296875zm0-145.4375h61.296875v77.71875h-61.296875zm0 0"/></symbol><symbol id="e" overflow="visible"><path d="m123.609375-56.046875v198.15625h-61.640625v-515.734375h61.640625v56.71875c12.882813-22.238281 29.15625-38.75 48.8125-49.53125 19.664063-10.789062 43.160156-16.1875 70.484375-16.1875 45.3125 0 82.128906 18.015625 110.453125 54.046875 28.320313 36.023437 42.484375 83.390625 42.484375 142.109375 0 58.710938-14.164062 106.078125-42.484375 142.109375-28.324219 36.023437-65.140625 54.03125-110.453125 54.03125-27.324219 0-50.820312-5.390625-70.484375-16.171875-19.65625-10.789062-35.929687-27.304688-48.8125-49.546875zm208.59375-130.421875c0-45.144531-9.277344-80.5625-27.828125-106.25-18.542969-25.6875-44.03125-38.53125-76.46875-38.53125-32.429688 0-57.917969 12.84375-76.46875 38.53125-18.554688 25.6875-27.828125 61.105469-27.828125 106.25 0 45.148438 9.273437 80.5625 27.828125 106.25 18.550781 25.679688 44.039062 38.515625 76.46875 38.515625 32.4375 0 57.925781-12.835937 76.46875-38.515625 18.550781-25.6875 27.828125-61.101562 27.828125-106.25zm0 0"/></symbol><symbol id="f" overflow="visible"><path d="m383.515625-202.15625v30.03125h-281.890625c2.664062 42.25 15.378906 74.445312 38.140625 96.578125 22.769531 22.125 54.484375 33.1875 95.140625 33.1875 23.539062 0 46.363281-2.890625 68.46875-8.671875 22.101562-5.789062 44.039062-14.46875 65.8125-26.03125v58.046875c-21.992188 9.34375-44.539062 16.460937-67.640625 21.34375-23.105469 4.894531-46.542969 7.34375-70.3125 7.34375-59.53125 0-106.679687-17.34375-141.4375-52.03125-34.761719-34.695313-52.140625-81.625-52.140625-140.78125 0-61.15625 16.488281-109.691406 49.46875-145.609375 32.988281-35.914062 77.472656-53.875 133.453125-53.875 50.195313 0 89.898437 16.183594 119.109375 48.546875 29.21875 32.355469 43.828125 76.328125 43.828125 131.921875zm-61.3125-18.015625c-.449219-33.582031-9.835937-60.378906-28.15625-80.390625-18.324219-20.007812-42.589844-30.015625-72.796875-30.015625-34.210938 0-61.589844 9.671875-82.140625 29.015625-20.542969 19.34375-32.371094 46.589844-35.484375 81.734375zm0 0"/></symbol><symbol id="g" overflow="visible"><path d="m280.546875-316.234375c-6.886719-4.007813-14.382813-6.957031-22.484375-8.84375-8.105469-1.894531-17.046875-2.84375-26.828125-2.84375-34.648437 0-61.246094 11.289063-79.796875 33.859375-18.554688 22.574219-27.828125 54.992188-27.828125 97.25v196.8125h-61.640625v-373.625h61.640625v58.046875c12.882813-22.675781 29.65625-39.519531 50.3125-50.53125 20.664063-11.007813 45.769531-16.515625 75.3125-16.515625 4.21875 0 8.878906.28125 13.984375.84375 5.113281.554688 10.78125 1.382812 17 2.484375zm0 0"/></symbol><symbol id="h" overflow="visible"><path d="m29.109375-216.28125h29.265625v88.65625h106.3125v-88.65625h29.265625v216.28125h-29.265625v-103h-106.3125v103h-29.265625zm0 0"/></symbol><symbol id="i" overflow="visible"><path d="m90.8125-143.5625c-14.292969 0-25.589844 5.578125-33.890625 16.734375-8.304687 11.15625-12.453125 26.445313-12.453125 45.859375 0 19.40625 4.125 34.6875 12.375 45.84375 8.257812 11.15625 19.582031 16.734375 33.96875 16.734375 14.195312 0 25.445312-5.597656 33.75-16.796875 8.300781-11.207031 12.453125-26.46875 12.453125-45.78125 0-19.21875-4.152344-34.453125-12.453125-45.703125-8.304688-11.257813-19.554688-16.890625-33.75-16.890625zm0-22.59375c23.175781 0 41.378906 7.539062 54.609375 22.609375 13.226563 15.0625 19.84375 35.921875 19.84375 62.578125 0 26.554688-6.617187 47.386719-19.84375 62.5-13.230469 15.117188-31.433594 22.671875-54.609375 22.671875-23.273438 0-41.496094-7.554687-54.671875-22.671875-13.179687-15.113281-19.765625-35.945312-19.765625-62.5 0-26.65625 6.585938-47.515625 19.765625-62.578125 13.175781-15.070313 31.398437-22.609375 54.671875-22.609375zm0 0"/></symbol><symbol id="j" overflow="visible"><path d="m154.265625-131.09375c6.65625-11.976562 14.617187-20.816406 23.890625-26.515625 9.269531-5.695313 20.179688-8.546875 32.734375-8.546875 16.894531 0 29.929687 5.917969 39.109375 17.75 9.175781 11.835938 13.765625 28.664062 13.765625 50.484375v97.921875h-26.796875v-97.0625c0-15.539062-2.757812-27.078125-8.265625-34.609375-5.5-7.53125-13.902344-11.296875-25.203125-11.296875-13.804688 0-24.714844 4.589844-32.734375 13.765625-8.011719 9.167969-12.015625 21.667969-12.015625 37.5v91.703125h-26.796875v-97.0625c0-15.632812-2.757813-27.191406-8.265625-34.671875-5.5-7.488281-13.996094-11.234375-25.484375-11.234375-13.617187 0-24.433594 4.609375-32.453125 13.828125-8.011719 9.21875-12.015625 21.699219-12.015625 37.4375v91.703125h-26.796875v-162.25h26.796875v25.21875c6.082031-9.945312 13.375-17.285156 21.875-22.015625 8.5-4.738281 18.585937-7.109375 30.265625-7.109375 11.78125 0 21.800781 2.996094 30.0625 8.984375 8.257812 5.992187 14.367188 14.683594 18.328125 26.078125zm0 0"/></symbol><symbol id="k" overflow="visible"><path d="m166.71875-87.78125v13.03125h-122.546875c1.164063 18.355469 6.695313 32.339844 16.59375 41.953125 9.894531 9.605469 23.675781 14.40625 41.34375 14.40625 10.238281 0 20.160156-1.253906 29.765625-3.765625 9.613281-2.519531 19.148438-6.289062 28.609375-11.3125v25.21875c-9.5625 4.054688-19.367187 7.140625-29.40625 9.265625-10.042969 2.125-20.230469 3.1875-30.5625 3.1875-25.875 0-46.371094-7.53125-61.484375-22.59375-15.105469-15.070313-22.65625-35.453125-22.65625-61.140625 0-26.550781 7.164062-47.625 21.5-63.21875 14.34375-15.601562 33.679688-23.40625 58.015625-23.40625 21.820313 0 39.082031 7.027344 51.78125 21.078125 12.695313 14.054687 19.046875 33.152344 19.046875 57.296875zm-26.65625-7.828125c-.1875-14.582031-4.265625-26.21875-12.234375-34.90625-7.96875-8.695313-18.523437-13.046875-31.65625-13.046875-14.867187 0-26.765625 4.203125-35.703125 12.609375-8.929688 8.40625-14.070312 20.234375-15.421875 35.484375zm0 0"/></symbol><symbol id="l" overflow="visible"/><symbol id="m" overflow="visible"><path d="m131.65625-101.40625c6.28125 2.125 12.390625 6.667969 18.328125 13.625 5.9375 6.949219 11.898437 16.507812 17.890625 28.671875l29.6875 59.109375h-31.421875l-27.671875-55.484375c-7.148438-14.476563-14.074219-24.082031-20.78125-28.8125-6.710938-4.738281-15.859375-7.109375-27.453125-7.109375h-31.859375v91.40625h-29.265625v-216.28125h66.046875c24.726562 0 43.175781 5.167969 55.34375 15.5 12.164062 10.335938 18.25 25.933594 18.25 46.796875 0 13.617187-3.167969 24.917969-9.5 33.90625-6.324219 8.980469-15.523438 15.203125-27.59375 18.671875zm-73.28125-90.828125v76.78125h36.78125c14.101562 0 24.75-3.257813 31.9375-9.78125 7.195312-6.519531 10.796875-16.101563 10.796875-28.75 0-12.65625-3.601563-22.191406-10.796875-28.609375-7.1875-6.425781-17.835938-9.640625-31.9375-9.640625zm0 0"/></symbol><symbol id="n" overflow="visible"><path d="m162.8125-97.921875v97.921875h-26.65625v-97.0625c0-15.351562-2.996094-26.84375-8.984375-34.46875-5.992187-7.625-14.96875-11.4375-26.9375-11.4375-14.386719 0-25.734375 4.589844-34.046875 13.765625-8.304688 9.167969-12.453125 21.667969-12.453125 37.5v91.703125h-26.796875v-162.25h26.796875v25.21875c6.375-9.757812 13.878906-17.050781 22.515625-21.875 8.644531-4.832031 18.617188-7.25 29.921875-7.25 18.632813 0 32.734375 5.773438 42.296875 17.3125 9.5625 11.542969 14.34375 28.515625 14.34375 50.921875zm0 0"/></symbol><symbol id="o" overflow="visible"><path d="m8.828125-162.25h28.25l50.703125 136.171875 50.6875-136.171875h28.25l-60.84375 162.25h-36.203125zm0 0"/></symbol><symbol id="p" overflow="visible"><path d="m101.6875-81.5625c-21.542969 0-36.464844 2.464844-44.765625 7.390625-8.304687 4.929687-12.453125 13.328125-12.453125 25.203125 0 9.46875 3.113281 16.980469 9.34375 22.53125 6.226562 5.554688 14.703125 8.328125 25.421875 8.328125 14.769531 0 26.617187-5.238281 35.546875-15.71875 8.9375-10.476563 13.40625-24.40625 13.40625-41.78125v-5.953125zm53.15625-11v92.5625h-26.65625v-24.625c-6.085938 9.855469-13.667969 17.125-22.75 21.8125-9.074219 4.675781-20.179688 7.015625-33.3125 7.015625-16.605469 0-29.808594-4.65625-39.609375-13.96875-9.804687-9.320313-14.703125-21.804687-14.703125-37.453125 0-18.257812 6.109375-32.023438 18.328125-41.296875 12.21875-9.269531 30.441406-13.90625 54.671875-13.90625h37.375v-2.59375c0-12.269531-4.03125-21.757813-12.09375-28.46875-8.0625-6.71875-19.386719-10.078125-33.96875-10.078125-9.273438 0-18.304688 1.117188-27.09375 3.34375-8.78125 2.21875-17.230469 5.546875-25.34375 9.984375v-24.625c9.757812-3.757813 19.222656-6.582031 28.390625-8.46875 9.175781-1.882813 18.109375-2.828125 26.796875-2.828125 23.46875 0 40.992188 6.085938 52.578125 18.25 11.59375 12.167969 17.390625 30.617188 17.390625 55.34375zm0 0"/></symbol><symbol id="q" overflow="visible"><path d="m54.3125-208.3125v46.0625h54.90625v20.71875h-54.90625v88.078125c0 13.230469 1.8125 21.730469 5.4375 25.5 3.625 3.761719 10.988281 5.640625 22.09375 5.640625h27.375v22.3125h-27.375c-20.574219 0-34.773438-3.835938-42.59375-11.515625-7.824219-7.675781-11.734375-21.65625-11.734375-41.9375v-88.078125h-19.546875v-20.71875h19.546875v-46.0625zm0 0"/></symbol><symbol id="r" overflow="visible"><path d="m27.953125-162.25h26.65625v162.25h-26.65625zm0-63.15625h26.65625v33.75h-26.65625zm0 0"/></symbol><symbol id="s" overflow="visible"><path d="m131.375-157.46875v25.21875c-7.53125-3.863281-15.355469-6.757812-23.46875-8.6875-8.117188-1.9375-16.515625-2.90625-25.203125-2.90625-13.230469 0-23.152344 2.03125-29.765625 6.09375-6.617188 4.054688-9.921875 10.132812-9.921875 18.234375 0 6.1875 2.363281 11.046875 7.09375 14.578125 4.738281 3.523438 14.253906 6.871094 28.546875 10.046875l9.125 2.03125c18.925781 4.0625 32.367188 9.789063 40.328125 17.171875 7.96875 7.386719 11.953125 17.695312 11.953125 30.921875 0 15.074219-5.964844 27.007813-17.890625 35.796875-11.929687 8.78125-28.320313 13.171875-49.171875 13.171875-8.6875 0-17.742188-.851563-27.15625-2.546875-9.417969-1.6875-19.339844-4.21875-29.765625-7.59375v-27.53125c9.851563 5.125 19.554687 8.96875 29.109375 11.53125 9.5625 2.554688 19.023438 3.828125 28.390625 3.828125 12.550781 0 22.207031-2.144531 28.96875-6.4375 6.757813-4.300781 10.140625-10.363281 10.140625-18.1875 0-7.238281-2.4375-12.789063-7.3125-16.65625-4.875-3.863281-15.570312-7.582031-32.078125-11.15625l-9.28125-2.171875c-16.511719-3.476562-28.4375-8.8125-35.78125-16-7.335937-7.195312-11-17.070312-11-29.625 0-15.257812 5.40625-27.039062 16.21875-35.34375 10.820313-8.3125 26.175781-12.46875 46.0625-12.46875 9.851563 0 19.125.726562 27.8125 2.171875 8.6875 1.449219 16.703125 3.621094 24.046875 6.515625zm0 0"/></symbol><g><use x="3592.023438" xlink:href="#a" y="2830.491106"/><use x="3793.276126" xlink:href="#b" y="2830.491106"/><use x="4225.769488" xlink:href="#c" y="2830.491106"/><use x="4658.262849" xlink:href="#d" y="2830.491106"/><use x="4847.853545" xlink:href="#e" y="2830.491106"/><use x="5281.013306" xlink:href="#f" y="2830.491106"/><use x="5700.845074" xlink:href="#g" y="2830.491106"/></g><g><use x="4002.585937" xlink:href="#h" y="3324.391127"/><use x="4225.64853" xlink:href="#i" y="3324.391127"/><use x="4407.140367" xlink:href="#j" y="3324.391127"/><use x="4696.107817" xlink:href="#k" y="3324.391127"/><use x="4878.613575" xlink:href="#l" y="3324.391127"/><use x="4972.908217" xlink:href="#m" y="3324.391127"/><use x="5165.698029" xlink:href="#k" y="3324.391127"/><use x="5348.203787" xlink:href="#n" y="3324.391127"/><use x="5536.213687" xlink:href="#i" y="3324.391127"/><use x="5717.705524" xlink:href="#o" y="3324.391127"/><use x="5893.258681" xlink:href="#p" y="3324.391127"/><use x="6075.04021" xlink:href="#q" y="3324.391127"/><use x="6191.351419" xlink:href="#r" y="3324.391127"/><use x="6273.768702" xlink:href="#i" y="3324.391127"/><use x="6455.260539" xlink:href="#n" y="3324.391127"/><use x="6643.270438" xlink:href="#s" y="3324.391127"/></g><path d="m3461.625 1154.640625c60.179688 6.714844 99.3125 41.140625 19.136719 200.992187 76.351562-38.457031 92.742187-7.800781 105.292969 23.925782 45.664062-21.453125 96.308593-31.191406 71.785156 119.636718 113.699218-11.828124 74.085937 67.945313 66.996094 110.066407 20.566406-.273438 37.03125 60.617187-62.226563 90.921875 8.707031 22.710937-24.390625 59.128906-114.851563 86.140625 29.515626 6.769531 83.683594 29.5625 81.363282 66.996093 37.425781-57.8125 74.367187-42.140624 81.34375-28.710937 59.644531-71.019531 105.035156 6.277344 100.503906 38.277344 95.734375-7.175781 124.28125 69.894531-86.132812 110.070312-81.253907 15.519531-96.402344-19.457031-105.292969-28.699219-34.804688 8.554688-90.328125-29.632812-124.429688-19.160156v19.160156c46.480469 22.183594 100.296875 54.671876 134.007813 90.910157 42.140625-34.417969 284.949218-73.480469 330.058594 4.734375 59.699218-34.195313 128.589843 10.804687 124.578124 28.773437 23.449219-6.847656 46.207032-11.9375 72.289063 19.496094 21.738281-13.203125 123.074219 22.480469 124.449219 40.839844 15.851562-2.226563 33.914062-.222657 50.140625 1.859375 40.691406 5.234375 65.898437 31.28125 22.292969 33.414062-33.601563 22.113282-137.5 32.65625-163.449219 16.726563-32.023438 26.4375-126.492188 38.875-172.714844-7.425781-51.199219 30.28125-141.84375-14.238282-256.308594-55.710938-32.867187-11.828125-67.71875-17.164062-102.617187-15.707031 27.230468 28.777343 15.332031 59-14.367188 76.5625-64.714844 38.296875-162.339844 49.027343-220.144531 95.71875 98.460937 1.78125 168.519531 41.511719 47.855469 47.839843 17.226562 22.09375-24.390625 31.65625-62.207032 33.511719-21.328124-16.949219-28.882812-25.230469-71.785156-4.789062-76.890625 33.953125 114.554688 198.4375 90.925782 339.773437-27.773438 166.097656-251.3125 311.179688 90.921874 473.753906 74.980469 35.625 190.035157 122.230469 234.511719 186.632813 35.4375 51.347656 8.410157 114.65625 49.621094 140.683594 400.304687 2.523437 2878.582031 1.558593 2771.027344 0 21.679687.316406 15.371093 27.882812 0 27.863281-1115.40625-1.707031-5134.679688.800781-5246.734375 0-17.277344-.796875-19.675782-27.902344 1.855468-27.863281 80.164063-.707031 348.570313-.890625 1498.804688 1.855469 391.300781.945312 278.339844-324.308594 288.921875-286.101563-58.773437-212.269531-36.960937-280.625 19.136719-358.914063 24.578125-34.289062 85.859375-51.460937 57.417968-100.492187-28.4375-49.027344-189.996093-79.566406-358.925781-71.769531-63.242187 2.914062-237.519531 10.601562-205.792969 43.070312 24.96875 32.285156 12.773438 55.0625 9.578126 71.769532-62.6875 35.554687-82.160157 49.941406-224.933594 52.652343-253.09375 4.789063-346.542969 7.851563-569.503906-9.582031-217.652344 77.804688-369.578126 29.074219-397.21875 0-29.921876 43.109375-234.769532 75.078125-248.859376 0-24.132812-1-62.214843-14.347656-62.214843-14.347656s-51.628907 17.488281-86.136719 4.789062c-16.246094-5.996094-38.285156-33.511718-38.285156-33.511718s-40.441406 4.941406-47.855469-28.71875c8.566406-18.414063 36.605469-27.4375 86.132813-28.699219 111.308593-39.171875 196.242187-51.648438 215.359374-14.351563 6.976563-5.070312 40.1875-8.894531 47.859376-14.371094 101.828124-94.53125 164.308593-76.558593 196.214843-76.558593 11.160157-12.773438 19.082031-33.992188 114.855469-33.511719 162.851562-130.136719 282.179688-56.898438 277.578125-19.140625 82.792969-22.109375 105.53125 12.515625 119.640625 28.722656 14.054688-3.75 35.085938-1.671875 47.855469 9.578125 26.101562.910156 47.355469 26.453125 43.070312 57.421875 57.527344 59.164063-25.246093 90.277344-57.417969 110.070313 60.441407 1.613281 67.609376 6.699218 191.425782 0 139.617187-7.574219 292.820312-7.6875 263.210937-114.863282-10.597656-32.542968 20.773438-52.371093 86.152344-62.207031 368.578125-55.511719 594.199219 11.136719 636.507813 14.347657 15.109374-27.789063 22.421874-135.558594-129.222657-172.261719-76.832031-18.601563-129.199219-25.117188-186.636719-95.71875-13.847656-3.210938-57.953124 3.414062-110.082031-9.5625-32.632812 12.140625-162.410156 18.101562-220.144531-9.578125-34.636719 9.039062-210.898438 59.628906-411.441406-7.890625-69.796875 6.292969-176.183594-41.011719-131.875-96.554688 43.476562 11.175781 70.339844-12.699219 131.746094 3.953125 13.144531-16.410156 36.644531-46.171875 105.292968-14.351562 41.46875-1.59375 132.746094-19.511719 162.707032 9.5625 33.324218-28.925782 57.046874-18.640625 66.996093-14.351563 75.609375-77.675781 134.53125-25.378906 143.570313-4.789062 79.285156-51.3125 115.132812-32.265625 119.660156-9.578125 13.21875-8.558594 21.144531-11.398438 47.855469-9.5625-157.121094-154.308594 159.945312-156.835938 57.417969-272.773438-16.949219 8.226563-77.835938 12.753906-90.921876-9.578125-47.578124 28.292969-128.015624 25.933594-153.148437 0-34.195313 18.136719-81.8125 46.894531-248.863281 52.648438-177.019532 64.976562-220.480469-14.421875-215.355469-19.140625-117.152344-11.378906-109.542969 20.832031-167.496094 28.703125-126.457031 17.191406-157.015625-28.238281-172.292969-43.070313-43.183593 35.402344-170.992187 32.097656-234.503906 19.160156-78.335937-14.6875 39.773438-69.082031 110.082032-67.003906 86.445312-121.066406 212.589843-99.320312 248.863281-90.929687 46.890625-78.851563 122.183593-12.066407 143.570312 4.785156 33.023438-51.039063 96.234375-96.46875 181.867188-95.707031-15.964844-23.292969-12.9375-46.113282 0-57.425782-32.949219-90.03125 36.53125-117.195312 57.417969-105.28125-6.40625-83.003906 78.929687-89.039062 114.867187-81.351562-6.125-50.949219 44.722656-170.292969 210.566406-129.210938 14.332031-30.59375 75.5-34.972656 143.570313-14.359374-5.679688-105.847657 141.304687-124.632813 196.214844-105.28125 10.007812-51.707032 78.152343-108.246094 110.101562-105.816407-1.707031-28.574219 39.875-42.777343 57.398438-32.953125 29.535156-43.28125 129.035156-70.03125 172.289062 14.355469 33.390625-13.144531 136.15625-23.734375 119.65625 76.5625zm-177.078125 1071.945313c17.132813-7.8125 51.140625-55.5625 162.707031-67 55.191406-5.640626 161.835938-25.171876 114.855469-76.558594-32.691406-31.394532-44.351563-38.28125-52.628906-43.070313-32.949219 6.90625-231.914063 31.800781-301.507813 19.140625-85.003906-17.769531-10.453125-60.394531-19.140625-76.5625-6.683593-9.597656-6.441406-9.894531-19.15625-14.371094-45.796875 61.542969-179.992187-13.976562-205.777343-43.070312 57.976562 106.171875-153.648438 151.25-52.644532 224.933594 19.695313-33.195313 110.582032-46.488282 124.429688-9.582032 27.511718-3.320312 41.042968 5.125 43.066406 14.351563 119.050781 4.625 187.605469 2.078125 172.289062 71.789063 8.242188.519531 26.324219 2.972656 33.507813 0zm76.574219-263.191407c-22.609375 14.851563-74.457032 10.171875-110.082032 9.5625.78125 17.914063-1.613281 29.332031-9.558593 43.070313 41.359375 5.863281 175.257812 3.953125 191.425781-23.933594-3.863281-4.878906-1.707031-1.296875-4.789062-9.558594-34.25.445313-45.628907-8.539062-66.996094-19.140625zm-177.078125 363.683594c-9.242188 6.164063-108.335938 20.476563-143.570313 4.789063 19.546875 24.601562 72.4375 31.207031 133.992188 28.722656-5.273438-7.667969 3.175781-21.796875 9.578125-33.511719zm0 0" fill-rule="evenodd"/></svg>