<svg xmlns="http://www.w3.org/2000/svg" width="3030.03" height="1345.031" viewBox="0 0 3030.03 1345.031">
  <defs>
    <style>
      .cls-1 {
        fill: #fff;
        fill-rule: evenodd;
      }
    </style>
  </defs>
  <path id="tree" class="cls-1" d="M1639.36,822.392a12.017,12.017,0,0,0-5.7-1.472,143.923,143.923,0,0,0-16.17.92,142.521,142.521,0,0,1-16.17.92q-16.9,0-33.63-1.1t-33.63-1.1a9.369,9.369,0,0,0-4.96,1.472,4.841,4.841,0,0,0-2.39,4.417q0,5.892,6.25,6.809t13.78,1.288a50.488,50.488,0,0,1,13.97,2.577q6.42,2.208,7.17,10.673a140.61,140.61,0,0,1,1.1,17.3v89.806q0,22.083-.19,44.167t-0.55,44.17q-0.36,6.255-.73,17.3t-1.47,24.29q-1.11,13.245-3.49,26.87a125.274,125.274,0,0,1-6.99,25.02,63.7,63.7,0,0,1-11.57,19.14,26.407,26.407,0,0,1-17.28,8.84,4.494,4.494,0,0,0-3.67,2.76,11.647,11.647,0,0,0-1.11,4.96,7.51,7.51,0,0,0,1.29,4.42,3.286,3.286,0,0,0,3.49,1.47q23.16-5.16,38.22-18.77a99.514,99.514,0,0,0,23.71-32.2,152.881,152.881,0,0,0,12.13-40.12,262.726,262.726,0,0,0,3.49-42.14q0-42.33.18-83.736t0.19-83.733q0-4.046-.19-7.913t-0.18-7.914q0-15.457,5.51-22.083t20.95-6.257q7.35-.733,9.38-2.392a4.63,4.63,0,0,0,2.02-3.5Q1642.12,823.87,1639.36,822.392Zm14.89,109.681a5.429,5.429,0,0,0,2.75,1.473c1.11,0.247,2.33.494,3.68,0.736a13.187,13.187,0,0,1,3.49,1.1q11.025,0,13.42,4.785t2.39,14.354q0,19.875-.37,39.566t-0.37,39.569a134.845,134.845,0,0,0,1.84,22.63,59.107,59.107,0,0,0,6.61,19.33,37.039,37.039,0,0,0,13.23,13.61q8.46,5.16,22.06,5.16h6.98a42.068,42.068,0,0,0,15.25-2.76,71.387,71.387,0,0,0,13.6-7,110.2,110.2,0,0,0,12.31-9.38q5.88-5.16,11.76-10.31c0.98-.98,1.47.13,1.47,3.31v6.26q0,1.11-.18,3.87c-0.13,1.84-.18,3.74-0.18,5.7a36.083,36.083,0,0,0,.36,5.34q0.375,2.385,1.47,2.76a8.314,8.314,0,0,0,3.5,0c1.59-.25,3.18-0.55,4.77-0.92s3-.74,4.23-1.11a11.01,11.01,0,0,1,2.57-.55q1.47-.375,7.35-2.02,5.88-1.665,12.32-3.68,6.42-2.025,11.76-3.68c3.55-1.11,5.57-1.78,6.06-2.03a25.854,25.854,0,0,0,3.68-2.39c1.47-1.1,2.2-2.27,2.2-3.5,0-2.21-.73-3.43-2.2-3.68a11.458,11.458,0,0,0-4.05,0,64.149,64.149,0,0,1-14.7,1.47q-5.145,0-7.53-3.31a13.416,13.416,0,0,1-2.39-8.1q0-15.45.18-30.91t0.19-30.919q0.36-15.821.73-31.653t0.37-31.652c0-5.153-.68-8.4-2.02-9.754s-4.48-2.024-9.37-2.024q-1.845,0-9.38.552t-15.98,1.288q-8.46.743-15.44,1.288t-7.72.92c-2.2,1.231-3.31,2.456-3.31,3.681a3.462,3.462,0,0,0,2.58,3.5,13.365,13.365,0,0,0,4.41.921,13.529,13.529,0,0,0,4.78,1.288c2.44,0.368,5.08.8,7.9,1.288a26.392,26.392,0,0,1,7.72,2.576,7.635,7.635,0,0,1,4.22,5.153,73.176,73.176,0,0,1,1.47,10.306c0.24,3.439.37,6.872,0.37,10.305v55.21q0,7.365-.18,12.7c-0.13,3.56-.25,6.62-0.37,9.2s-0.31,5.09-.55,7.54a127.115,127.115,0,0,1-9.01,10.68,45.835,45.835,0,0,1-9,7.36,33.933,33.933,0,0,1-10.66,4.23,63.912,63.912,0,0,1-13.6,1.29q-18.75,0-25.54-10.12-6.81-10.125-6.8-28.16,0-11.04.18-22.08t0.19-22.086V931.705c0-1.225-.13-3.249-0.37-6.073s-1.35-4.232-3.31-4.232a116.622,116.622,0,0,0-12.86.736q-6.615.741-12.87,1.472c-1.23,0-3.06.063-5.51,0.184s-5.03.184-7.72,0.184a64.165,64.165,0,0,0-6.98.368,26.4,26.4,0,0,0-4.41.736c-1.72.984-2.57,2.209-2.57,3.681A4.481,4.481,0,0,0,1654.25,932.073ZM1909.49,916.8q-6.06,3.5-13.59,7.729-7.545,4.236-13.97,8.281t-7.9,5.153a13.889,13.889,0,0,0-4.05,4.417v0.736c0,1.472.92,2.519,2.76,3.128s3.92,1.352,6.25,2.209a28.8,28.8,0,0,1,6.62,3.5,9.422,9.422,0,0,1,3.85,6.257,66.921,66.921,0,0,1,1.47,15.091v75.824a101.615,101.615,0,0,1-.91,12.33q-0.93,7.17-3.86,11.22a12.383,12.383,0,0,1-5.33,3.5,68.47,68.47,0,0,1-7.17,2.21,30.936,30.936,0,0,0-6.25,2.2c-1.71.87-2.57,2.03-2.57,3.5q0,3.315,2.02,4.23a11.97,11.97,0,0,0,4.96.92,183.5,183.5,0,0,0,18.56-.92,183.5,183.5,0,0,1,18.56-.92,131.078,131.078,0,0,1,15.44.92,134.143,134.143,0,0,0,15.8.92,29.3,29.3,0,0,0,4.23-.18,33.98,33.98,0,0,0,3.86-1.29,6,6,0,0,0,1.47-4.42q0-3.3-2.21-4.04a16.545,16.545,0,0,0-5.88-1.11,76.5,76.5,0,0,1-10.47-.73q-5.34-.735-9.37-6.26-3.315-4.785-3.31-12.15V987.282q0-6.255.37-12.146t0.92-10.49a36.937,36.937,0,0,1,1.28-6.809q1.845-3.675,6.8-6.625t8.27-4.784a94.589,94.589,0,0,1,14.15-6.441,45.723,45.723,0,0,1,15.25-2.393q11.76,0,18.75,4.417a28.074,28.074,0,0,1,10.47,11.594,48,48,0,0,1,4.41,16.378q0.915,9.2.92,18.771v47.476q0,7.74-.37,15.83,0,4.41-.36,10.67t-3.31,9.94a11.414,11.414,0,0,1-6.8,4.23q-4.23.93-8.45,1.48a26.162,26.162,0,0,0-7.17,1.84q-2.94,1.29-2.94,4.97,0,3.3,4.23,3.86a53.232,53.232,0,0,0,6.43.55c1.96,0,3.91-.06,5.88-0.18s3.91-.31,5.88-0.55,3.92-.44,5.88-0.56,3.92-.18,5.88-0.18h27.56a90.954,90.954,0,0,1,10.11.55,90.822,90.822,0,0,0,10.11.55c1.71,0,2.76-.49,3.12-1.47a8.265,8.265,0,0,0,.55-2.94,10.918,10.918,0,0,0-.55-3.5,2.278,2.278,0,0,0-2.39-1.66q-10.665,0-18-2.94-7.365-2.94-7.36-15.46v-53.74q0-7.35.37-14.349t0.37-14.354a132.929,132.929,0,0,0-2.21-24.844,50.117,50.117,0,0,0-8.08-19.875,40.862,40.862,0,0,0-15.62-13.066q-9.75-4.779-24.44-4.785-16.92,0-29.77,7.545a176.637,176.637,0,0,0-25.36,18.219,8.909,8.909,0,0,1-2.94,2.208l-0.74-.368V923.976a11.906,11.906,0,0,1,.37-2.944,12.344,12.344,0,0,0,.37-2.945,5.758,5.758,0,0,0-1.29-2.944,3.532,3.532,0,0,0-2.76-1.841C1915.8,913.3,1913.54,914.47,1909.49,916.8Zm229.35-99.744a19.233,19.233,0,0,0-14.15-5.7,19.893,19.893,0,0,0-13.97,5.888q-6.255,5.892-6.25,13.619a19.482,19.482,0,0,0,19.85,19.875,20.2,20.2,0,0,0,13.96-5.7,18,18,0,0,0,6.25-13.8A19.29,19.29,0,0,0,2138.84,817.055Zm24.44,262.425q-4.05-.915-9.01-1.84a26.83,26.83,0,0,1-9.19-3.5q-4.23-2.565-4.96-10.3a86.291,86.291,0,0,1-.55-12.7q0.18-6.435.18-12.7-0.36-13.605-.55-27.05-0.18-13.425-.18-27.053,0-11.042.18-22.267t0.55-22.268c0.25-3.68.43-7.3,0.56-10.857s0.18-7.177.18-10.858c0-1.225-.74-1.84-2.21-1.84q-1.47,0-5.51,2.208t-9,4.969q-4.965,2.76-9.74,5.337a41.045,41.045,0,0,1-7.35,3.312q-1.485.372-4.41,1.288-2.955.924-6.07,2.209a31.341,31.341,0,0,0-5.33,2.76c-1.47.984-2.2,2.088-2.2,3.313s0.79,2.271,2.39,3.128a56.635,56.635,0,0,0,5.51,2.577c2.08,0.862,4.23,1.782,6.43,2.76a13.924,13.924,0,0,1,5.15,3.681,18.242,18.242,0,0,1,3.49,9.937q0.555,6.262.55,10.674,0,8.834-.55,17.483t-0.92,17.487q-0.375,11.775-.18,23,0.18,11.235-.19,23v5.52a31.907,31.907,0,0,1-.73,5.16q-1.11,5.88-4.23,7.91a17.3,17.3,0,0,1-7.17,2.58c-2.7.36-5.45,0.73-8.27,1.1a15.209,15.209,0,0,0-7.53,3.13c-0.5.49-.98,0.98-1.47,1.47a2.472,2.472,0,0,0-.74,1.84c0,2.7.86,4.29,2.58,4.79a20.327,20.327,0,0,0,5.51.73h4.04q9.555,0,19.48-.92t19.48-.92a90.048,90.048,0,0,1,12.68.92,92.482,92.482,0,0,0,13.05.92c1.71,0,3.86-.12,6.43-0.37s3.86-1.72,3.86-4.41C2167.32,1081.87,2165.97,1080.1,2163.28,1079.48Zm182.29-42.33a60.576,60.576,0,0,1-11.95,21.35,58.017,58.017,0,0,1-19.29,14.36,61,61,0,0,1-26.1,5.33,47.261,47.261,0,0,1-9.37-1.1,59.133,59.133,0,0,1-10.29-3.13,46.883,46.883,0,0,1-9.19-4.97,20.382,20.382,0,0,1-6.43-6.99q-1.47-2.94-2.21-11.41t-0.91-18.41q-0.2-9.93,0-18.95,0.18-9.015.18-13.434V956.733q0-4.416,4.23-7.361a33.923,33.923,0,0,1,9.74-4.6,69.757,69.757,0,0,1,11.39-2.392,79.181,79.181,0,0,1,9.19-.736,61.915,61.915,0,0,1,26.28,5.521,63.09,63.09,0,0,1,20.58,15.09,69.878,69.878,0,0,1,13.41,22.083,73.812,73.812,0,0,1,4.78,26.5A83.989,83.989,0,0,1,2345.57,1037.15Zm27.38-68.639a74.628,74.628,0,0,0-15.07-24.476,70.924,70.924,0,0,0-23.34-16.562,72.186,72.186,0,0,0-29.77-6.073,47.984,47.984,0,0,0-11.21,1.472,115.251,115.251,0,0,0-12.13,3.68,126,126,0,0,0-11.76,4.969,84.828,84.828,0,0,0-10.1,5.705,20.367,20.367,0,0,0-2.76,1.656,5.214,5.214,0,0,1-3.12.92,1.4,1.4,0,0,1-.92-0.184,0.786,0.786,0,0,0-.56-0.184q-1.47-1.466-1.47-5.152a42.284,42.284,0,0,1,.74-7.914,42.224,42.224,0,0,0,.73-7.913,17.968,17.968,0,0,0-.55-3.864,2.654,2.654,0,0,0-2.75-2.393,7.64,7.64,0,0,0-3.31,1.288c-1.47.863-3.07,1.841-4.78,2.945s-3.37,2.151-4.96,3.128-2.76,1.72-3.49,2.209a106.474,106.474,0,0,1-14.7,6.073,143.772,143.772,0,0,0-14.7,5.705,12.238,12.238,0,0,1-3.13,1.84c-1.6.736-2.39,1.472-2.39,2.208q0,4.054,3.49,4.969t7.91,2.208a21.247,21.247,0,0,1,8.27,4.785q3.855,3.5,4.59,12.33a19.2,19.2,0,0,1,.37,3.68V975.5q0,43.434-.92,86.306t-0.92,86.31v4.79a69.44,69.44,0,0,1-.55,9.01,7.481,7.481,0,0,1-4.23,6.08,14.722,14.722,0,0,1-6.8,4.05c-3.06.97-6.06,1.84-9,2.57s-5.58,1.48-7.9,2.21c-2.34.74-3.5,1.72-3.5,2.95,0,3.92,1.11,6.07,3.31,6.44a51.172,51.172,0,0,0,8.09.55,149.574,149.574,0,0,0,19.66-1.29,149.574,149.574,0,0,1,19.66-1.29,145.757,145.757,0,0,1,17.83,1.11,147.454,147.454,0,0,0,17.82,1.1,29.957,29.957,0,0,0,6.8-.92,4.6,4.6,0,0,0,3.86-4.97,5.654,5.654,0,0,0-1.83-4.05q-1.11-.735-5.33-0.92t-9.38-.73a76.569,76.569,0,0,1-9.74-1.66q-4.59-1.11-6.43-4.05a6.181,6.181,0,0,1-1.28-2.76c-0.13-.86-0.31-1.9-0.56-3.13a11.365,11.365,0,0,1-.36-3.31v-3.31q0-13.26-.37-26.69t-0.37-26.68v-4.78a35.933,35.933,0,0,1,.92-8.29q0.915-3.855,5.33-3.86a45.616,45.616,0,0,1,8.82.74c2.45,0.48,4.9,1.04,7.35,1.65s5.27,1.16,8.46,1.66a82.6,82.6,0,0,0,46.3-7.18,85.859,85.859,0,0,0,27.2-20.24,94.949,94.949,0,0,0,17.83-29.26,96.905,96.905,0,0,0,6.43-35.336A83.1,83.1,0,0,0,2372.95,968.511Zm144.8-2.761a8.935,8.935,0,0,1-4.41,3.865,23.4,23.4,0,0,1-6.43,1.472q-3.675.372-8.08,0.736-9.93.742-16.73,0.553t-17.09-.185c-0.49,0-1.71.064-3.67,0.185a48.775,48.775,0,0,1-6.07,0,33.187,33.187,0,0,1-5.51-.737c-1.6-.368-2.39-1.041-2.39-2.024a40.263,40.263,0,0,1,3.31-15.642,49.013,49.013,0,0,1,9-14.171,47.4,47.4,0,0,1,13.05-10.121,32.047,32.047,0,0,1,15.07-3.865,27.921,27.921,0,0,1,11.58,2.577,34.044,34.044,0,0,1,10.11,6.993,36.185,36.185,0,0,1,7.16,10.305,28.333,28.333,0,0,1,2.76,12.146Q2519.41,963,2517.75,965.75Zm30.88,0.553a93.305,93.305,0,0,0-2.39-9.57q-6.615-22.083-22.24-31.469t-37.67-9.385q-19.485,0-33.26,9.017a70.663,70.663,0,0,0-22.24,23.188,102.2,102.2,0,0,0-12.13,31.837,154.808,154.808,0,0,0-3.3,34.969,104.72,104.72,0,0,0,5.14,30.91,75.224,75.224,0,0,0,13.97,25.21,63.737,63.737,0,0,0,22.42,16.94q13.23,6.06,30.5,6.07,14.7,0,25.36-4.23t22.06-13.81q1.455-1.1,4.22-3.68a73.57,73.57,0,0,0,5.33-5.52,64.249,64.249,0,0,0,4.6-5.89c1.34-1.96,2.02-3.55,2.02-4.78,0-1.47-.86-2.21-2.58-2.21s-2.7.13-2.94,0.37q-5.505,4.05-10.1,7.36a60.957,60.957,0,0,1-9.19,5.52,42.923,42.923,0,0,1-9.93,3.31,60.848,60.848,0,0,1-12.31,1.11q-16.905,0-28.3-6.08a50.278,50.278,0,0,1-18.37-16.37,70.047,70.047,0,0,1-10.11-23.93,142.767,142.767,0,0,1-3.49-28.707v-2.944a48.556,48.556,0,0,1,.36-5.889q0.375-2.942,1.47-2.945a12.187,12.187,0,0,1,3.68-.736h91.52c1.22,0,2.51-.057,3.85-0.184a35.176,35.176,0,0,0,3.86-.552,15.025,15.025,0,0,0,1.47-7.361A84.936,84.936,0,0,0,2548.63,966.3Zm165.39-29.077a24.869,24.869,0,0,0-4.6-9.385,25.828,25.828,0,0,0-8.63-6.993q-5.34-2.762-13.42-2.761a52.561,52.561,0,0,0-17.64,3.129,109.325,109.325,0,0,0-16.17,7.177,95.743,95.743,0,0,0-12.13,7.729c-3.19,2.456-4.9,4.175-5.15,5.153v-11.41a55.088,55.088,0,0,0-.36-6.625,14.461,14.461,0,0,0-1.11-4.417,9.324,9.324,0,0,1-1.47-.92,1.9,1.9,0,0,0-1.83-.184,16.058,16.058,0,0,0-5.88,2.392,72.91,72.91,0,0,0-6.62,4.6q-3.3,2.58-6.62,5.153a49.95,49.95,0,0,1-5.88,4.049q-3.675,2.208-7.16,4.048t-7.17,3.681c-0.98.494-2.08,1.1-3.31,1.84a5.955,5.955,0,0,0-2.57,2.945,5.7,5.7,0,0,0,2.76,4.416q2.385,1.476,5.14,2.945a45.076,45.076,0,0,1,5.7,3.68,13.2,13.2,0,0,1,4.41,6.625,27.522,27.522,0,0,1,2.02,9.57q0.18,5.159.18,9.937,0,14.355.19,26.5t0.18,26.5q0,7.365-.37,14.72a101.339,101.339,0,0,1-1.83,14.73q-1.11,6.255-5.33,8.46a33.29,33.29,0,0,1-8.64,3.13q-4.41.93-8.09,1.84a4.705,4.705,0,0,0-.55,9.02,16.625,16.625,0,0,0,5.33,1.1,165.29,165.29,0,0,0,20.58-1.29,165.316,165.316,0,0,1,20.59-1.28,128.21,128.21,0,0,1,18.19,1.28,128.006,128.006,0,0,0,18.19,1.29,14.554,14.554,0,0,0,3.86-.55c1.34-.37,2.02-1.42,2.02-3.13,0-4.42-1.1-6.62-3.31-6.62q-5.145,0-10.47-.37a30.4,30.4,0,0,1-9.74-2.21,19.674,19.674,0,0,1-7.53-5.52,18.2,18.2,0,0,1-3.86-9.94,24.752,24.752,0,0,1-.37-4.78V967.039A21.286,21.286,0,0,1,2638.86,956a34.765,34.765,0,0,1,8.82-9.754,51.569,51.569,0,0,1,12.49-6.993,39.677,39.677,0,0,1,14.71-2.76q4.77,0,6.61,2.76a24.016,24.016,0,0,1,2.94,6.441q1.11,3.684,2.02,7.362a8.684,8.684,0,0,0,3.86,5.52q6.255,4.418,11.03,4.6a12.466,12.466,0,0,0,7.9-2.024,12.8,12.8,0,0,0,4.59-6.073,22.071,22.071,0,0,0,1.47-7.913A41.4,41.4,0,0,0,2714.02,937.226ZM1871.76,1238.15c-0.7-.42-2.27-0.64-4.72-0.64q-4.95,0-9.9.32c-3.31.22-6.61,0.32-9.91,0.32a79.162,79.162,0,0,1-7.99-.4c-2.66-.26-5.38-0.4-8.15-0.4-0.85,0-1.68-.02-2.48-0.08a8.4,8.4,0,0,0-2.31.16,3.838,3.838,0,0,0-1.76.8,2.334,2.334,0,0,0-.64,1.84c0,1.28.34,2.02,1.04,2.24a9.2,9.2,0,0,0,2.63.32,3.52,3.52,0,0,0,1.76.71c0.85,0.16,1.81.3,2.88,0.4a18.919,18.919,0,0,1,3.03.56,8.621,8.621,0,0,1,2.4,1.04,4.846,4.846,0,0,1,1.44,2.16,16.069,16.069,0,0,1,.72,2.87c0.16,1.02.26,2.03,0.32,3.04s0.08,1.89.08,2.63v10.39q0,3.675-.08,7.75c-0.06,2.71-.08,5.3-0.08,7.75q0,3.51-.08,5.99a17.583,17.583,0,0,1-.24,2.95,2.252,2.252,0,0,1-1.68,1.36,13.466,13.466,0,0,1-3.27.48c-1.28.05-2.59,0.05-3.92,0s-2.53-.08-3.6-0.08q-6.7,0-11.9-.08c-3.46-.05-6.85-0.08-10.15-0.08s-6.68-.03-10.14-0.08-7.44-.08-11.91-0.08q-4.155,0-4.15-4.47v-27.16c0-1.49.02-2.98,0.08-4.48s0.08-2.98.08-4.47a11.282,11.282,0,0,1,.71-4.39,6.037,6.037,0,0,1,1.92-2.56,7.19,7.19,0,0,1,2.64-1.2,14.144,14.144,0,0,1,3.03-.32,38.555,38.555,0,0,0,5.76-.39q2.55-.4,2.55-3.6a1.668,1.668,0,0,0-.95-1.6,4.26,4.26,0,0,0-1.92-.48c-3.84,0-7.7.06-11.59,0.16s-7.75.16-11.58,0.16q-4.155,0-8.15-.24c-2.67-.16-5.38-0.24-8.15-0.24h-1.76a12.471,12.471,0,0,0-3.12.4,1.777,1.777,0,0,0-1.51,1.84,2.449,2.449,0,0,0,1.19,2.48,10.681,10.681,0,0,0,3.12.8c1.28,0.16,2.61.34,3.99,0.55a10.606,10.606,0,0,1,4,1.52,8.521,8.521,0,0,1,3.12,3.76,17.986,17.986,0,0,1,1.19,7.35v70.13c0,2.34-.02,4.74-0.08,7.19a64.994,64.994,0,0,1-.55,7.19c-0.43,2.87-1.58,4.82-3.44,5.83a18.163,18.163,0,0,1-5.83,1.99q-3.045.48-5.52,1.04a2.8,2.8,0,0,0-2.47,2.96,1.721,1.721,0,0,0,1.75,1.92c1.18,0.1,2.19.16,3.04,0.16a72.353,72.353,0,0,0,8.31-.48,73.712,73.712,0,0,1,8.47-.48h6.23c2.77,0,5.6.13,8.47,0.4s5.7,0.4,8.47.4a26.816,26.816,0,0,0,3.76-.24c1.11-.16,1.67-1.04,1.67-2.64,0-1.49-.82-2.32-2.47-2.48s-3.49-.34-5.52-0.56a16.706,16.706,0,0,1-5.75-1.67c-1.81-.91-2.88-2.8-3.19-5.67a7.878,7.878,0,0,0-.08-1.04c-0.06-.37-0.08-1.63-0.08-3.76v-31.31a4.308,4.308,0,0,1,1.19-3.43,6.68,6.68,0,0,1,3.04-1.44,16.363,16.363,0,0,1,4.07-.32c1.5,0.05,2.88.08,4.16,0.08h38.99c0.96,0,2-.03,3.12-0.08a11.981,11.981,0,0,1,3.11.24,4.452,4.452,0,0,1,2.4,1.36,4.969,4.969,0,0,1,.96,3.43v29.08a43.265,43.265,0,0,1-.48,6.07,11.535,11.535,0,0,1-2.24,5.59,6.679,6.679,0,0,1-4.39,2.63,33.243,33.243,0,0,1-5.04.4,14.994,14.994,0,0,0-4.07.48q-1.68.48-1.68,2.88c0,1.7,1.12,2.56,3.36,2.56q5.115,0,10.3-.48t10.31-.48q5.28,0,10.63.48t10.62,0.48c1.28,0,2.48-.06,3.6-0.16s1.68-.96,1.68-2.56a2.442,2.442,0,0,0-1.28-2.4,11.792,11.792,0,0,0-3.2-.96c-1.27-.21-2.66-0.42-4.15-0.63a12.566,12.566,0,0,1-4.16-1.36,8.373,8.373,0,0,1-3.19-3.2,12.068,12.068,0,0,1-1.28-6.15q0-20.13.16-39.86t0.16-39.86v-2.71a30.611,30.611,0,0,1,.4-5.11,7.388,7.388,0,0,1,1.68-3.84,5.576,5.576,0,0,1,3.43-1.92,33.648,33.648,0,0,1,4.8-.63c1.65-.11,3.14-0.24,4.47-0.4s2.16-.56,2.48-1.2C1872.8,1239.59,1872.45,1238.58,1871.76,1238.15Zm71.83,91.94a33.126,33.126,0,0,1-3.76,10.07,22.085,22.085,0,0,1-6.95,7.43,21.053,21.053,0,0,1-22.13-.56,26.169,26.169,0,0,1-7.59-8.71,41.382,41.382,0,0,1-4.16-11.5,59.127,59.127,0,0,1-1.27-11.83,49.257,49.257,0,0,1,1.2-10.46,33.05,33.05,0,0,1,3.91-10.06,23.606,23.606,0,0,1,7.03-7.51,17.95,17.95,0,0,1,10.39-2.96,47.085,47.085,0,0,1,5.43.32,10.7,10.7,0,0,1,4.96,1.92,24.633,24.633,0,0,1,6.71,6.31,32.6,32.6,0,0,1,4.31,8.23,48.847,48.847,0,0,1,2.32,9.26,62.5,62.5,0,0,1,.72,9.27A54.539,54.539,0,0,1,1943.59,1330.09Zm15.18-21.01a51.292,51.292,0,0,0-2.08-6.87,37.28,37.28,0,0,0-14.14-17.41,38.366,38.366,0,0,0-21.49-6.23,36.086,36.086,0,0,0-15.26,3.2,37.712,37.712,0,0,0-19.82,21.08,42.074,42.074,0,0,0-2.8,15.34,41.533,41.533,0,0,0,2.8,15.58,34.386,34.386,0,0,0,20.14,19.73,43.318,43.318,0,0,0,15.58,2.71,36.564,36.564,0,0,0,27.32-11.82,39.8,39.8,0,0,0,7.75-12.7,42.484,42.484,0,0,0,2.8-15.42A32.538,32.538,0,0,0,1958.77,1309.08Zm145.74,41.22c-1.28-.1-2.7-0.26-4.24-0.48a8.937,8.937,0,0,1-4.23-1.76c-1.28-.95-1.92-2.98-1.92-6.07v-15.97q0-4.635.16-9.27c0.1-3.09.16-6.17,0.16-9.26a52.853,52.853,0,0,0-.8-9.27,28.173,28.173,0,0,0-2.8-8.23,19.961,19.961,0,0,0-5.35-6.39,22.366,22.366,0,0,0-8.47-3.91c-1.07-.21-2.11-0.4-3.12-0.56a20.93,20.93,0,0,0-3.27-.24,20.027,20.027,0,0,0-6.95,1.2,33.681,33.681,0,0,0-6.32,3.11,45.209,45.209,0,0,0-5.75,4.32q-2.715,2.385-5.27,4.79a3.248,3.248,0,0,1-.72-1.04c-0.16-.37-0.35-0.77-0.56-1.2a16.3,16.3,0,0,0-3.52-4.63,24.759,24.759,0,0,0-5.03-3.59,29.546,29.546,0,0,0-5.75-2.4,20.625,20.625,0,0,0-5.83-.88,25.241,25.241,0,0,0-13.27,3.67,72.565,72.565,0,0,0-11.18,8.31,5.333,5.333,0,0,1-.16-1.76c0-1.06.02-2.1,0.08-3.11s0.08-2.05.08-3.12c0-.63-0.06-1.46-0.16-2.47a1.412,1.412,0,0,0-1.44-1.52,10.313,10.313,0,0,0-3.44,1.12q-2.475,1.125-5.35,2.55c-1.92.96-3.73,1.9-5.43,2.8s-2.94,1.57-3.68,2a19.626,19.626,0,0,0-2.24,1.28,1.991,1.991,0,0,0-.96,1.75,1.9,1.9,0,0,0,.96,1.36,17.412,17.412,0,0,0,2.32,1.44c0.9,0.48,1.76.93,2.56,1.36a7.268,7.268,0,0,1,1.67,1.11c0.54,0.64.91,2.16,1.12,4.56s0.32,4.61.32,6.63v3.03q0,4.635-.16,9.19c-0.1,3.03-.16,6.1-0.16,9.19,0,1.17.03,2.74,0.08,4.71a53.021,53.021,0,0,1-.16,5.91,26.225,26.225,0,0,1-1.04,5.59,6.386,6.386,0,0,1-2.55,3.75,9.408,9.408,0,0,1-2.16.64c-1.01.22-2.05,0.43-3.12,0.64a12.9,12.9,0,0,0-2.79.88,1.649,1.649,0,0,0-1.2,1.2,3.994,3.994,0,0,0,.48,1.76,1.538,1.538,0,0,0,1.44.96q5.115,0,10.38-.48t10.39-.48a32.483,32.483,0,0,1,5.51.48,32.6,32.6,0,0,0,5.52.48,14.971,14.971,0,0,0,2.87-.32,1.875,1.875,0,0,0,1.6-2.08,1.768,1.768,0,0,0-1.52-1.92c-1.01-.21-2.21-0.45-3.59-0.72a18.882,18.882,0,0,1-4.08-1.27,5.736,5.736,0,0,1-2.95-3.6,22.85,22.85,0,0,1-.64-4.71c-0.11-1.97-.16-3.86-0.16-5.67v-12.15a25.225,25.225,0,0,1,.16-2.87q0.315-4.32.24-8.71-0.09-4.395.24-8.7a11.846,11.846,0,0,1,2.07-5.84,15.094,15.094,0,0,1,4.32-4.07,20.532,20.532,0,0,1,5.59-2.4,23.861,23.861,0,0,1,6.07-.79,21.854,21.854,0,0,1,9.91,2.39,11.21,11.21,0,0,1,6.07,7.99,22.288,22.288,0,0,1,.56,4.23c0.06,1.44.08,2.85,0.08,4.24q0,8.145-.08,15.97t-0.08,15.98a16.491,16.491,0,0,1-.64,5.11,5.857,5.857,0,0,1-1.59,2.96,6.931,6.931,0,0,1-2.64,1.51,19.924,19.924,0,0,1-3.2.72c-1.11.16-2.21,0.35-3.27,0.56a1.805,1.805,0,0,0-1.44.88,6.378,6.378,0,0,0-.16,1.68,1.849,1.849,0,0,0,.64,1.28,10.785,10.785,0,0,0,2.4.16c1.17,0,2.29-.06,3.35-0.16s2.18-.22,3.36-0.32c0.85-.11,1.65-0.19,2.39-0.24s1.55-.08,2.4-0.08h4.96c1.49,0,3,.02,4.55.08s3.06,0.13,4.55.24c1.07,0.1,2.11.21,3.12,0.32s2.05,0.16,3.12.16c0.53,0,1.27-.06,2.23-0.16a1.373,1.373,0,0,0,1.44-1.44,2.159,2.159,0,0,0-.56-1.44,4.1,4.1,0,0,0-1.2-.96c-0.95-.1-2.1-0.21-3.43-0.32a13.816,13.816,0,0,1-3.76-.8,8.53,8.53,0,0,1-2.95-1.75,4.39,4.39,0,0,1-1.2-3.36v-28.6c0-1.49.02-3.19,0.08-5.11s0.1-3.72.16-5.43,0.16-3.22.32-4.55a7.1,7.1,0,0,1,.56-2.48,12.456,12.456,0,0,1,2.31-2.63,21.065,21.065,0,0,1,2.8-2.16,25.1,25.1,0,0,1,5.75-3.28,17.935,17.935,0,0,1,6.4-1.03q7.815,0,12.46,4.23t4.63,12.38v27.48q0,3.195-.24,6.39a34.775,34.775,0,0,1-1.03,6.23,5.388,5.388,0,0,1-4.96,4.47,14.148,14.148,0,0,1-1.68.24,16.2,16.2,0,0,1-1.67.08,9.012,9.012,0,0,0-3.36.8c-0.53,1.6-.43,2.66.32,3.2h0.8q4.785,0,8.39-.32c2.4-.22,5.19-0.32,8.39-0.32,0.85,0,2.02.05,3.51,0.16s2.66,0.21,3.52.32a70.954,70.954,0,0,0,8.47.48,19.282,19.282,0,0,0,2.47-.24c1.12-.16,1.68-0.67,1.68-1.52A1.863,1.863,0,0,0,2104.51,1350.3Zm59.04-50.08a3.83,3.83,0,0,1-1.92,1.67,10.043,10.043,0,0,1-2.79.64c-1.07.11-2.24,0.22-3.52,0.32a70.012,70.012,0,0,1-7.27.24q-2.955-.075-7.43-0.08c-0.22,0-.75.03-1.6,0.08a19.377,19.377,0,0,1-2.64,0,14.133,14.133,0,0,1-2.39-.32,1.035,1.035,0,0,1-1.04-.88,17.443,17.443,0,0,1,1.44-6.78,21.21,21.21,0,0,1,3.91-6.16,20.576,20.576,0,0,1,5.67-4.39,13.946,13.946,0,0,1,6.56-1.68,12.207,12.207,0,0,1,5.03,1.12,14.7,14.7,0,0,1,4.39,3.04,15.741,15.741,0,0,1,3.12,4.47,12.287,12.287,0,0,1,1.2,5.27A6.728,6.728,0,0,1,2163.55,1300.22Zm13.42,0.24a37.192,37.192,0,0,0-1.04-4.16q-2.865-9.585-9.66-13.66a31.344,31.344,0,0,0-16.38-4.07,25.969,25.969,0,0,0-14.47,3.91,30.789,30.789,0,0,0-9.66,10.07,44.267,44.267,0,0,0-5.28,13.82,67.242,67.242,0,0,0-1.43,15.17,45.286,45.286,0,0,0,2.23,13.42,32.841,32.841,0,0,0,6.07,10.95,27.941,27.941,0,0,0,9.75,7.35,31.682,31.682,0,0,0,13.27,2.63,29.956,29.956,0,0,0,11.02-1.83,35.541,35.541,0,0,0,9.59-6c0.42-.32,1.04-0.85,1.84-1.59a32.875,32.875,0,0,0,2.31-2.4,25.12,25.12,0,0,0,2-2.56,4,4,0,0,0,.88-2.07,0.925,0.925,0,0,0-1.12-.96,2.632,2.632,0,0,0-1.28.16c-1.59,1.17-3.06,2.24-4.39,3.19a25.983,25.983,0,0,1-4,2.4,18.665,18.665,0,0,1-4.31,1.44,26.63,26.63,0,0,1-5.35.48,25.953,25.953,0,0,1-12.31-2.64,21.875,21.875,0,0,1-7.99-7.11,30.361,30.361,0,0,1-4.39-10.38,61.485,61.485,0,0,1-1.52-12.46v-1.28a20.11,20.11,0,0,1,.16-2.56c0.1-.85.32-1.28,0.64-1.28a5.29,5.29,0,0,1,1.6-.31h39.79c0.53,0,1.09-.03,1.67-0.08s1.15-.14,1.68-0.24a6.492,6.492,0,0,0,.64-3.2A36.894,36.894,0,0,0,2176.97,1300.46Zm125.92-20.05a18.886,18.886,0,0,1-6.39,7.67,24.944,24.944,0,0,1-9.67,3.83,65.817,65.817,0,0,1-11.98,1.04,13.742,13.742,0,0,1-4.24-.48,2.635,2.635,0,0,1-1.75-1.6,7.12,7.12,0,0,1-.32-2.79c0.05-1.12.08-2.48,0.08-4.08q0-6.39.16-14.38t0.16-14.37v-5.44a8.6,8.6,0,0,1,1.75-5.83q1.755-1.995,7.35-1.99a33.947,33.947,0,0,1,10.87,1.67,23.9,23.9,0,0,1,8.55,4.96,23.129,23.129,0,0,1,5.67,8.06,27.894,27.894,0,0,1,2.08,11.19Q2305.21,1275.535,2302.89,1280.41Zm3.2,11.58a43.794,43.794,0,0,0,7.67-6.23,30.418,30.418,0,0,0,5.59-7.91,21.225,21.225,0,0,0,2.16-9.5q0-9.435-3.52-15.5a29.061,29.061,0,0,0-8.79-9.67,32.748,32.748,0,0,0-11.34-4.95,52.51,52.51,0,0,0-11.35-1.36q-6.075,0-12.22.24t-12.23.24h-13.9c-1.17,0-2.37-.05-3.59-0.16s-2.43-.16-3.6-0.16a15.191,15.191,0,0,0-3.44.4c-1.11.27-1.67,1.15-1.67,2.64a1.858,1.858,0,0,0,1.28,1.92,12.347,12.347,0,0,0,3.27.64c1.33,0.1,2.74.21,4.24,0.31a15.831,15.831,0,0,1,4.23.88,6.915,6.915,0,0,1,3.28,2.48,8.31,8.31,0,0,1,1.27,4.95q0,13.59-.24,27-0.225,13.425-.23,27v32.91a9.42,9.42,0,0,1-1.28,5.27,9.546,9.546,0,0,1-3.28,3.04,13.388,13.388,0,0,1-4.23,1.51c-1.5.27-2.91,0.51-4.24,0.72a26.014,26.014,0,0,0-3.27.72,1.545,1.545,0,0,0-1.28,1.52c0,1.49.21,2.37,0.64,2.64a5.987,5.987,0,0,0,2.71.4q4.95,0,9.83-.48t9.83-.48c3.73,0,7.51.18,11.34,0.56s7.67,0.56,11.51.56a17.786,17.786,0,0,0,4.79-.48c1.07-.32,1.6-1.23,1.6-2.72a1.485,1.485,0,0,0-1.12-1.6,8.738,8.738,0,0,0-2.39-.32,3.251,3.251,0,0,1-1.28-.16q-3.2-.63-5.75-0.96a12.8,12.8,0,0,1-4.4-1.27,6.653,6.653,0,0,1-2.88-3.04,14.5,14.5,0,0,1-1.03-6.23v-32.91c0-2.56.24-4.26,0.71-5.11s1.79-1.28,3.92-1.28a15.886,15.886,0,0,1,9.67,2.88,28.813,28.813,0,0,1,6.87,7.27,58.8,58.8,0,0,1,5.27,9.82c1.55,3.62,3.22,7.14,5.04,10.54a55.929,55.929,0,0,0,13.98,21.09,43.45,43.45,0,0,0,22.77,11.03c0.74,0.1,1.65.21,2.72,0.31a30.974,30.974,0,0,0,3.19.16,18.806,18.806,0,0,0,5.76-.63,3.954,3.954,0,0,0,1.43-2.4c0-.96-0.61-1.57-1.83-1.84a17.5,17.5,0,0,1-3.6-1.2,25.369,25.369,0,0,1-11.82-5.99,57.28,57.28,0,0,1-9.27-10.62,104.489,104.489,0,0,1-7.51-12.86q-3.36-6.8-6.32-12.86a87.3,87.3,0,0,0-5.91-10.47q-2.955-4.38-6.15-5.67A70.4,70.4,0,0,0,2306.09,1291.99Zm91.08,8.23a3.83,3.83,0,0,1-1.92,1.67,9.96,9.96,0,0,1-2.79.64c-1.07.11-2.24,0.22-3.52,0.32a69.933,69.933,0,0,1-7.27.24q-2.955-.075-7.43-0.08c-0.21,0-.75.03-1.6,0.08a19.232,19.232,0,0,1-2.63,0,14.119,14.119,0,0,1-2.4-.32,1.044,1.044,0,0,1-1.04-.88,17.443,17.443,0,0,1,1.44-6.78,21.422,21.422,0,0,1,3.91-6.16,20.473,20.473,0,0,1,5.68-4.39,13.908,13.908,0,0,1,6.55-1.68,12.207,12.207,0,0,1,5.03,1.12,14.871,14.871,0,0,1,4.4,3.04,15.711,15.711,0,0,1,3.11,4.47,12.287,12.287,0,0,1,1.2,5.27A6.728,6.728,0,0,1,2397.17,1300.22Zm13.43,0.24a42.144,42.144,0,0,0-1.04-4.16q-2.88-9.585-9.67-13.66a31.344,31.344,0,0,0-16.38-4.07,25.912,25.912,0,0,0-14.46,3.91,30.718,30.718,0,0,0-9.67,10.07,44.253,44.253,0,0,0-5.27,13.82,66.688,66.688,0,0,0-1.44,15.17,44.967,44.967,0,0,0,2.24,13.42,32.494,32.494,0,0,0,6.07,10.95,27.76,27.76,0,0,0,9.75,7.35,31.6,31.6,0,0,0,13.26,2.63,30.048,30.048,0,0,0,11.03-1.83,35.654,35.654,0,0,0,9.58-6c0.43-.32,1.04-0.85,1.84-1.59s1.57-1.55,2.32-2.4a28.3,28.3,0,0,0,2-2.56,4.05,4.05,0,0,0,.87-2.07,0.921,0.921,0,0,0-1.11-.96,2.575,2.575,0,0,0-1.28.16c-1.6,1.17-3.07,2.24-4.4,3.19a26.387,26.387,0,0,1-3.99,2.4,18.746,18.746,0,0,1-4.32,1.44,26.56,26.56,0,0,1-5.35.48,25.91,25.91,0,0,1-12.3-2.64,21.8,21.8,0,0,1-7.99-7.11,30.181,30.181,0,0,1-4.4-10.38,62.2,62.2,0,0,1-1.52-12.46v-1.28a22.13,22.13,0,0,1,.16-2.56c0.11-.85.32-1.28,0.64-1.28a5.29,5.29,0,0,1,1.6-.31h39.79c0.53,0,1.09-.03,1.68-0.08s1.14-.14,1.68-0.24a6.617,6.617,0,0,0,.63-3.2A36.859,36.859,0,0,0,2410.6,1300.46Zm32.59-21.49c-1.75,1.01-3.73,2.13-5.91,3.35s-4.21,2.43-6.07,3.6-3.01,1.92-3.44,2.24a5.99,5.99,0,0,0-1.75,1.91v0.32a1.438,1.438,0,0,0,1.19,1.36c0.8,0.27,1.71.59,2.72,0.96a12.436,12.436,0,0,1,2.88,1.52,4.112,4.112,0,0,1,1.68,2.71,29.427,29.427,0,0,1,.63,6.55v32.91a43.9,43.9,0,0,1-.39,5.35,10.573,10.573,0,0,1-1.68,4.88,5.359,5.359,0,0,1-2.32,1.51,26.864,26.864,0,0,1-3.12.96,13.671,13.671,0,0,0-2.71.96,1.7,1.7,0,0,0-1.12,1.52,1.8,1.8,0,0,0,.88,1.84,5.272,5.272,0,0,0,2.16.4c2.76,0,5.45-.14,8.07-0.4a78.1,78.1,0,0,1,8.06-.4,56.1,56.1,0,0,1,6.72.4,59.268,59.268,0,0,0,6.87.4,13.056,13.056,0,0,0,1.84-.08,16.25,16.25,0,0,0,1.67-.56,2.6,2.6,0,0,0,.64-1.92,1.615,1.615,0,0,0-.96-1.76,7.194,7.194,0,0,0-2.55-.48,32.29,32.29,0,0,1-4.56-.32,6.08,6.08,0,0,1-4.07-2.71,9.05,9.05,0,0,1-1.44-5.27v-31.16c0-1.81.05-3.56,0.16-5.27s0.24-3.22.4-4.55a15.75,15.75,0,0,1,.56-2.96,7.345,7.345,0,0,1,2.95-2.87c1.44-.85,2.64-1.55,3.6-2.08a42.118,42.118,0,0,1,6.15-2.8,19.971,19.971,0,0,1,6.63-1.03,15.193,15.193,0,0,1,8.15,1.91,12.217,12.217,0,0,1,4.56,5.04,20.9,20.9,0,0,1,1.92,7.1c0.26,2.67.4,5.38,0.4,8.15v20.61c0,2.24-.06,4.53-0.16,6.87,0,1.28-.06,2.82-0.16,4.63a7.492,7.492,0,0,1-1.44,4.32,4.949,4.949,0,0,1-2.96,1.83c-1.22.27-2.45,0.48-3.67,0.64a11.606,11.606,0,0,0-3.12.8,2.14,2.14,0,0,0-1.28,2.16c0,0.96.61,1.52,1.84,1.68a23.382,23.382,0,0,0,2.8.24c0.85,0,1.7-.03,2.55-0.08s1.71-.14,2.56-0.24,1.7-.19,2.56-0.24,1.7-.08,2.55-0.08h11.99a39.681,39.681,0,0,1,4.39.24,39.729,39.729,0,0,0,4.4.24,1.265,1.265,0,0,0,1.35-.64,3.623,3.623,0,0,0,.24-1.28,4.79,4.79,0,0,0-.24-1.52,0.976,0.976,0,0,0-1.03-.72,20.975,20.975,0,0,1-7.83-1.28c-2.14-.85-3.2-3.08-3.2-6.71v-23.32q0-3.195.16-6.23c0.1-2.02.16-4.1,0.16-6.23a57.414,57.414,0,0,0-.96-10.78,21.692,21.692,0,0,0-3.51-8.63,17.688,17.688,0,0,0-6.8-5.67,23.952,23.952,0,0,0-10.62-2.08,25.106,25.106,0,0,0-12.95,3.28,77.137,77.137,0,0,0-11.02,7.9,3.759,3.759,0,0,1-1.28.96l-0.32-.16v-8.62a5.045,5.045,0,0,1,.16-1.28,5.608,5.608,0,0,0,.16-1.28,2.553,2.553,0,0,0-.56-1.28,1.545,1.545,0,0,0-1.2-.8A16.1,16.1,0,0,0,2443.19,1278.97Zm133.52,51.12a33.126,33.126,0,0,1-3.76,10.07,22.085,22.085,0,0,1-6.95,7.43,21.053,21.053,0,0,1-22.13-.56,26.169,26.169,0,0,1-7.59-8.71,41.382,41.382,0,0,1-4.16-11.5,59.127,59.127,0,0,1-1.27-11.83,49.873,49.873,0,0,1,1.19-10.46,33.325,33.325,0,0,1,3.92-10.06,23.606,23.606,0,0,1,7.03-7.51,17.95,17.95,0,0,1,10.39-2.96,47.085,47.085,0,0,1,5.43.32,10.622,10.622,0,0,1,4.95,1.92,24.53,24.53,0,0,1,6.72,6.31,32.922,32.922,0,0,1,4.31,8.23,49.616,49.616,0,0,1,2.32,9.26,62.5,62.5,0,0,1,.72,9.27A54.539,54.539,0,0,1,2576.71,1330.09Zm15.18-21.01a51.292,51.292,0,0,0-2.08-6.87,37.28,37.28,0,0,0-14.14-17.41,38.366,38.366,0,0,0-21.49-6.23,36.086,36.086,0,0,0-15.26,3.2,37.712,37.712,0,0,0-19.82,21.08,42.074,42.074,0,0,0-2.8,15.34,41.533,41.533,0,0,0,2.8,15.58,34.386,34.386,0,0,0,20.14,19.73,43.28,43.28,0,0,0,15.58,2.71,36.564,36.564,0,0,0,27.32-11.82,39.8,39.8,0,0,0,7.75-12.7,42.7,42.7,0,0,0,2.8-15.42A32.538,32.538,0,0,0,2591.89,1309.08Zm84.93-27.79a9.3,9.3,0,0,0-2.8-.48h-1.59c-1.18,0-2.4.05-3.68,0.16s-2.5.16-3.67,0.16h-7.83a25.4,25.4,0,0,1-2.8-.16,23.288,23.288,0,0,0-2.8-.16,14.265,14.265,0,0,0-2.47.24,1.6,1.6,0,0,0-1.36,1.83,1.673,1.673,0,0,0,.4,1.12,8.763,8.763,0,0,0,.72.8c0.64,0,1.51.06,2.63,0.16a17.3,17.3,0,0,1,3.28.64,10.606,10.606,0,0,1,2.8,1.28,2.548,2.548,0,0,1,1.19,2.23,19.278,19.278,0,0,1-.87,4.4c-0.59,2.07-1.31,4.45-2.16,7.11s-1.84,5.48-2.96,8.46-2.18,5.84-3.19,8.55-1.98,5.14-2.88,7.27-1.63,3.73-2.16,4.79c-0.21.43-.53,1.1-0.96,2a1.836,1.836,0,0,1-1.44,1.36,0.874,0.874,0,0,1-.87-0.56,2.839,2.839,0,0,0-.56-0.88,110,110,0,0,1-4.8-11.02q-2.865-6.87-5.59-13.74l-5.43-13.74c-0.22-.75-0.46-1.46-0.72-2.16a5.871,5.871,0,0,1-.4-2.16,2.314,2.314,0,0,1,1.2-2.23,8.546,8.546,0,0,1,2.79-.88c1.07-.16,2.19-0.26,3.36-0.32a6.886,6.886,0,0,0,2.72-.56,1.4,1.4,0,0,0,.95-0.88,13.275,13.275,0,0,0,.32-1.36l-0.8-1.27a8.324,8.324,0,0,0-1.91-.32h-1.76c-1.07,0-2.13.02-3.2,0.08s-2.13.08-3.19,0.08-2.83-.03-5.28-0.08-5-.08-7.67-0.08h-7.35a25.59,25.59,0,0,0-4.15.16,2.707,2.707,0,0,0-1.6.56,1.748,1.748,0,0,0-.8,1.51,1.87,1.87,0,0,0,1.28,1.92,31.584,31.584,0,0,0,3.12.96,28.528,28.528,0,0,1,3.59,1.2,5.351,5.351,0,0,1,2.72,2.47q1.275,2.565,2.31,5.2c0.7,1.75,1.47,3.54,2.32,5.35q4.32,9.585,8.47,19.09t8.63,19.09c0.21,0.53.69,1.68,1.44,3.43s1.52,3.6,2.32,5.52,1.54,3.64,2.23,5.19a24.88,24.88,0,0,1,1.04,2.47,8.763,8.763,0,0,0,.8.72,1.673,1.673,0,0,0,1.12.4,1.769,1.769,0,0,0,1.12-1.04,22.289,22.289,0,0,0,1.28-2.47c0.42-.96.8-1.86,1.11-2.72s0.54-1.44.64-1.76q5.43-13.89,10.71-27.47t11.51-27.16a25.943,25.943,0,0,1,1.83-3.36,12.3,12.3,0,0,1,2.64-2.87,5.391,5.391,0,0,1,3.04-1.44,20.9,20.9,0,0,0,3.35-.64,8.175,8.175,0,0,0,1.52-.8,1.615,1.615,0,0,0,.72-1.44A1.813,1.813,0,0,0,2676.82,1281.29Zm47.38,42.49v7.03a3.617,3.617,0,0,1-.08.56,8.588,8.588,0,0,0-.08,1.52,10.857,10.857,0,0,1-1.6,4.23,19.035,19.035,0,0,1-2.71,3.76,19.454,19.454,0,0,1-5.68,4.07,15.353,15.353,0,0,1-6.79,1.68q-5.115,0-7.19-2.88a12.2,12.2,0,0,1-2.08-7.35,9.953,9.953,0,0,1,3.6-7.99,26.557,26.557,0,0,1,7.91-4.63q1.44-.48,3.27-1.2c1.23-.48,2.51-0.96,3.84-1.43s2.64-.91,3.91-1.28,2.4-.67,3.36-0.88a16.39,16.39,0,0,1,.24,2c0.05,0.79.08,1.73,0.08,2.79h0Zm24.93,16.62a2.72,2.72,0,0,0-1.44.79c-0.43.43-.91,0.88-1.44,1.36a8.338,8.338,0,0,1-1.92,1.28,6.3,6.3,0,0,1-2.87.56,8.39,8.39,0,0,1-2.56-.4,3.22,3.22,0,0,1-1.92-1.52,8.5,8.5,0,0,1-.88-3.59c-0.15-1.76-.26-3.62-0.31-5.59s-0.06-3.89,0-5.75,0.08-3.28.08-4.24q0-6.06.15-12.86,0.165-6.78.16-12.86a35.2,35.2,0,0,0-1.27-9.82q-1.29-4.4-6.56-7.11a16.163,16.163,0,0,0-2.55-.96,30.566,30.566,0,0,0-3.36-.8c-1.17-.21-2.32-0.4-3.43-0.56a20.532,20.532,0,0,0-2.8-.24,26.34,26.34,0,0,0-9.91,2.24,44.967,44.967,0,0,0-10.07,5.75,42.264,42.264,0,0,0-7.83,7.59,12.913,12.913,0,0,0-3.19,7.91,13.128,13.128,0,0,0,.32,2.79,1.851,1.851,0,0,0,2.08,1.52,9.7,9.7,0,0,0,5.59-1.76,8.174,8.174,0,0,0,3.35-4.31c0.22-.75.54-1.86,0.96-3.36a14.869,14.869,0,0,1,2.32-4.55,14.6,14.6,0,0,1,4.55-3.99,15.184,15.184,0,0,1,7.68-1.68q7.185,0,9.66,4.07t2.48,10.79v12.3q-5.76,1.44-10.31,2.95c-3.03,1.02-6.42,2.21-10.14,3.6a55.756,55.756,0,0,0-6.16,2.87,34.327,34.327,0,0,0-6.07,4.16,22.91,22.91,0,0,0-4.63,5.35,11.984,11.984,0,0,0-1.84,6.47q0,7.185,3.27,11.9,3.285,4.71,11.43,4.71a22.622,22.622,0,0,0,6.63-1.04,31.737,31.737,0,0,0,6.63-2.87,39.073,39.073,0,0,0,5.84-4.07,27.425,27.425,0,0,0,4.39-4.64,19.276,19.276,0,0,0,4.32,8.15,10.617,10.617,0,0,0,8.31,3.35,15.276,15.276,0,0,0,9.42-3.11,14.379,14.379,0,0,0,5.44-8.23,13.835,13.835,0,0,0,.32-1.44q0-1.59-1.92-1.11h0Zm55.37-57.52a1.7,1.7,0,0,0-1.2-1.27,5.914,5.914,0,0,0-2.64-.48c-1.54-.11-2.9-0.16-4.07-0.16h-1.6c-0.96,0-2.1.02-3.44,0.08s-2.66.1-3.99,0.16-2.61.05-3.84,0a20.021,20.021,0,0,1-3.27-.4c-0.11-.53-0.19-0.96-0.24-1.28a10.107,10.107,0,0,1-.08-1.6v-5.75a5.524,5.524,0,0,1,.16-1.6,14.275,14.275,0,0,1-.24-1.67,1,1,0,0,0-1.2-.88,2.162,2.162,0,0,0-2.08,1.43c-0.96,1.6-1.75,2.83-2.39,3.68s-1.23,1.6-1.76,2.24a24.881,24.881,0,0,1-1.92,1.99c-0.75.7-1.76,1.63-3.04,2.8a21.064,21.064,0,0,1-3.19,2.63c-1.17.8-2.32,1.55-3.44,2.24s-2.13,1.28-3.03,1.76a15.392,15.392,0,0,0-2,1.2,1.19,1.19,0,0,1-.08.48,0.968,0.968,0,0,0-.08.47c0,0.96.58,1.47,1.76,1.52s2.42,0.11,3.75.16a9.381,9.381,0,0,1,3.76.96c1.17,0.59,1.76,1.84,1.76,3.75q0,10.065-.24,19.58-0.24,9.495-.24,19.57,0,9.255,4.15,14.85t14.06,5.59a30.2,30.2,0,0,0,7.75-1.03,20.689,20.689,0,0,0,6.96-3.28,22.2,22.2,0,0,0,3.59-3.43,6.88,6.88,0,0,0,1.68-4.56,1.486,1.486,0,0,0-1.76-1.59q-3.36,2.07-5.67,3.59a12.136,12.136,0,0,1-6.63,1.52,11.255,11.255,0,0,1-8.23-3.04,10.842,10.842,0,0,1-3.12-8.15c0-3.19.03-6.39,0.08-9.58s0.08-6.39.08-9.59c0-3.62-.03-7.42-0.08-11.42s0.03-7.8.24-11.42a5.739,5.739,0,0,1,.64-2.88,0.646,0.646,0,0,1,.8-0.64,4.122,4.122,0,0,1,2.79-.87c1.34-.06,2.37-0.08,3.12-0.08q3.03,0,5.99.16t6.16,0.15c0.53,0,1.38-.02,2.55-0.07a3.19,3.19,0,0,0,2.4-.88,7.916,7.916,0,0,1,.48-1.6,4.307,4.307,0,0,0,.32-1.6A7.325,7.325,0,0,0,2804.5,1282.88Zm36.43-47.2a8.354,8.354,0,0,0-6.15-2.48,8.621,8.621,0,0,0-6.07,2.56,7.854,7.854,0,0,0-2.72,5.91,8.456,8.456,0,0,0,8.63,8.62,8.78,8.78,0,0,0,6.07-2.47,7.823,7.823,0,0,0,2.72-5.99A8.354,8.354,0,0,0,2840.93,1235.68Zm10.63,113.9c-1.18-.26-2.48-0.53-3.92-0.8a11.692,11.692,0,0,1-3.99-1.51q-1.845-1.125-2.16-4.48a38.693,38.693,0,0,1-.24-5.51c0.05-1.86.08-3.7,0.08-5.51q-0.165-5.91-.24-11.74t-0.08-11.74q0-4.8.08-9.67t0.24-9.67q0.165-2.385.24-4.71c0.05-1.54.08-3.11,0.08-4.71a0.787,0.787,0,0,0-.96-0.8,6.605,6.605,0,0,0-2.4.96q-1.755.96-3.91,2.16c-1.44.79-2.85,1.57-4.23,2.31a17.68,17.68,0,0,1-3.2,1.44c-0.43.11-1.07,0.29-1.92,0.56s-1.73.59-2.64,0.96a13.036,13.036,0,0,0-2.31,1.2,1.76,1.76,0,0,0-.96,1.43,1.585,1.585,0,0,0,1.04,1.36,23.608,23.608,0,0,0,2.39,1.12c0.91,0.37,1.84.77,2.8,1.2a6.029,6.029,0,0,1,2.24,1.6,7.858,7.858,0,0,1,1.52,4.31c0.16,1.81.24,3.35,0.24,4.63q0,3.84-.24,7.59c-0.16,2.5-.3,5.03-0.4,7.59q-0.165,5.115-.08,9.98t-0.08,9.99v2.39a13.717,13.717,0,0,1-.32,2.24,4.99,4.99,0,0,1-1.84,3.44,7.657,7.657,0,0,1-3.12,1.11c-1.17.16-2.37,0.32-3.59,0.48a6.7,6.7,0,0,0-3.28,1.36c-0.21.22-.42,0.43-0.64,0.64a1.093,1.093,0,0,0-.32.8c0,1.17.38,1.86,1.12,2.08a8.865,8.865,0,0,0,2.4.32h1.76c2.77,0,5.59-.14,8.47-0.4s5.69-.4,8.47-0.4a38.443,38.443,0,0,1,5.51.4,40.908,40.908,0,0,0,5.67.4c0.75,0,1.68-.06,2.8-0.16a1.7,1.7,0,0,0,1.68-1.92A2.121,2.121,0,0,0,2851.56,1349.58Zm76.38-19.49a33.374,33.374,0,0,1-3.75,10.07,22.214,22.214,0,0,1-6.96,7.43,21.053,21.053,0,0,1-22.13-.56,26.169,26.169,0,0,1-7.59-8.71,41.05,41.05,0,0,1-4.15-11.5,58.445,58.445,0,0,1-1.28-11.83,49.257,49.257,0,0,1,1.2-10.46,33.308,33.308,0,0,1,3.91-10.06,23.718,23.718,0,0,1,7.03-7.51,17.95,17.95,0,0,1,10.39-2.96,47.085,47.085,0,0,1,5.43.32,10.7,10.7,0,0,1,4.96,1.92,24.491,24.491,0,0,1,6.71,6.31,32.6,32.6,0,0,1,4.31,8.23,48.847,48.847,0,0,1,2.32,9.26,62.5,62.5,0,0,1,.72,9.27A54.539,54.539,0,0,1,2927.94,1330.09Zm15.18-21.01a49.872,49.872,0,0,0-2.08-6.87,37.28,37.28,0,0,0-14.14-17.41,38.366,38.366,0,0,0-21.49-6.23,36.086,36.086,0,0,0-15.26,3.2,38.223,38.223,0,0,0-11.99,8.54,38.664,38.664,0,0,0-7.83,12.54,42.068,42.068,0,0,0-2.79,15.34,41.534,41.534,0,0,0,2.79,15.58,34.386,34.386,0,0,0,20.14,19.73,43.318,43.318,0,0,0,15.58,2.71,36.564,36.564,0,0,0,27.32-11.82,39.8,39.8,0,0,0,7.75-12.7,42.484,42.484,0,0,0,2.8-15.42A32.538,32.538,0,0,0,2943.12,1309.08Zm34.12-30.11q-2.64,1.515-5.92,3.35c-2.18,1.23-4.21,2.43-6.07,3.6s-3.01,1.92-3.43,2.24a5.911,5.911,0,0,0-1.76,1.91v0.32a1.437,1.437,0,0,0,1.2,1.36c0.8,0.27,1.7.59,2.71,0.96a12.436,12.436,0,0,1,2.88,1.52,4.112,4.112,0,0,1,1.68,2.71,29.374,29.374,0,0,1,.64,6.55v32.91a44.142,44.142,0,0,1-.4,5.35,10.573,10.573,0,0,1-1.68,4.88,5.3,5.3,0,0,1-2.32,1.51,27.311,27.311,0,0,1-3.11.96,13.554,13.554,0,0,0-2.72.96,1.7,1.7,0,0,0-1.12,1.52,1.8,1.8,0,0,0,.88,1.84,5.272,5.272,0,0,0,2.16.4c2.77,0,5.46-.14,8.07-0.4a78.433,78.433,0,0,1,8.07-.4,56.055,56.055,0,0,1,6.71.4,59.529,59.529,0,0,0,6.87.4,13.056,13.056,0,0,0,1.84-.08,16.979,16.979,0,0,0,1.68-.56,2.644,2.644,0,0,0,.63-1.92,1.61,1.61,0,0,0-.95-1.76,7.288,7.288,0,0,0-2.56-.48,32.151,32.151,0,0,1-4.55-.32,6.076,6.076,0,0,1-4.08-2.71,9.05,9.05,0,0,1-1.44-5.27v-31.16c0-1.81.05-3.56,0.16-5.27s0.24-3.22.4-4.55a16.615,16.615,0,0,1,.56-2.96,7.313,7.313,0,0,1,2.96-2.87c1.44-.85,2.63-1.55,3.59-2.08a42.118,42.118,0,0,1,6.15-2.8,19.989,19.989,0,0,1,6.64-1.03,15.241,15.241,0,0,1,8.15,1.91,12.192,12.192,0,0,1,4.55,5.04,20.9,20.9,0,0,1,1.92,7.1c0.26,2.67.4,5.38,0.4,8.15v20.61c0,2.24-.06,4.53-0.16,6.87,0,1.28-.06,2.82-0.16,4.63a7.492,7.492,0,0,1-1.44,4.32,4.92,4.92,0,0,1-2.96,1.83c-1.22.27-2.45,0.48-3.67,0.64a11.606,11.606,0,0,0-3.12.8,2.14,2.14,0,0,0-1.28,2.16c0,0.96.62,1.52,1.84,1.68a23.382,23.382,0,0,0,2.8.24c0.85,0,1.7-.03,2.55-0.08s1.71-.14,2.56-0.24,1.7-.19,2.56-0.24,1.7-.08,2.55-0.08h11.99a39.548,39.548,0,0,1,4.39.24,39.863,39.863,0,0,0,4.4.24,1.289,1.289,0,0,0,1.36-.64,3.623,3.623,0,0,0,.24-1.28,4.79,4.79,0,0,0-.24-1.52,0.994,0.994,0,0,0-1.04-.72,20.975,20.975,0,0,1-7.83-1.28c-2.13-.85-3.2-3.08-3.2-6.71v-23.32q0-3.195.16-6.23t0.16-6.23a57.414,57.414,0,0,0-.96-10.78,21.692,21.692,0,0,0-3.51-8.63,17.73,17.73,0,0,0-6.79-5.67,24.028,24.028,0,0,0-10.63-2.08,25.044,25.044,0,0,0-12.94,3.28,77.212,77.212,0,0,0-11.03,7.9,3.667,3.667,0,0,1-1.28.96l-0.32-.16v-8.62a5.045,5.045,0,0,1,.16-1.28,5.1,5.1,0,0,0,.16-1.28,2.553,2.553,0,0,0-.56-1.28,1.53,1.53,0,0,0-1.2-.8A15.856,15.856,0,0,0,2977.24,1278.97Zm120.81,46.25a30.6,30.6,0,0,0-6.72-6.95,76.3,76.3,0,0,0-8.71-5.75q-4.635-2.64-8.7-5.19a34.059,34.059,0,0,1-6.72-5.36,8.969,8.969,0,0,1-2.63-6.31,14.036,14.036,0,0,1,2.47-8.3,8.344,8.344,0,0,1,7.27-3.52c3.73,0,6.64.86,8.71,2.56a19.883,19.883,0,0,1,4.8,5.51,28.377,28.377,0,0,1,2.47,5.51c0.54,1.71,1.12,2.56,1.76,2.56a1.346,1.346,0,0,0,1.52-.88c0.16-.58.29-1.2,0.4-1.84q0.48-4.95.48-10.38a2.958,2.958,0,0,0-.48-1.68,8.887,8.887,0,0,0-1.12-1.36,14.443,14.443,0,0,0-7.19-3.99,33.644,33.644,0,0,0-8.15-1.12,34,34,0,0,0-9.51,1.28,21.036,21.036,0,0,0-7.59,3.91,18.1,18.1,0,0,0-5.03,6.79,24.283,24.283,0,0,0-1.84,9.91,15.872,15.872,0,0,0,2.56,9.18,27.481,27.481,0,0,0,6.39,6.63,50.234,50.234,0,0,0,8.31,5.04,85.307,85.307,0,0,1,8.31,4.55,30.438,30.438,0,0,1,6.39,5.19,9.721,9.721,0,0,1,2.56,6.79q0,6.075-3.52,9.59a14.214,14.214,0,0,1-15.42,2.15,15.05,15.05,0,0,1-4.31-3.51,22.253,22.253,0,0,1-3.2-5.04c-0.91-1.91-1.78-3.83-2.64-5.75a9.074,9.074,0,0,0-.71-1.43,1.473,1.473,0,0,0-1.36-.64,6.057,6.057,0,0,0-1.36.16,1.086,1.086,0,0,0-.88.96c0,1.49.02,2.82,0.08,3.99s0.08,2.34.08,3.51l-0.16,5.44a4.938,4.938,0,0,0,2.56,4.23,22.472,22.472,0,0,0,6.07,2.71,39.9,39.9,0,0,0,7.03,1.44,50.53,50.53,0,0,0,5.43.4,28.373,28.373,0,0,0,13.91-3.35q6.06-3.36,9.26-11.03a20.783,20.783,0,0,0,1.76-7.82A15.207,15.207,0,0,0,3098.05,1325.22ZM1448.75,183.952c32.42,3.616,53.5,22.16,10.31,108.264,41.13-20.714,49.96-4.2,56.72,12.888,24.6-11.555,51.88-16.8,38.67,64.443,61.25-6.371,39.91,36.6,36.09,59.288,11.08-.147,19.95,32.651-33.52,48.976,4.69,12.232-13.14,31.85-61.87,46.4,15.9,3.645,45.08,15.924,43.83,36.088,20.16-31.141,40.06-22.7,43.82-15.466,32.13-38.255,56.58,3.381,54.14,20.622,51.57-3.869,66.95,37.649-46.4,59.287-43.77,8.356-51.93-10.484-56.72-15.466-18.75,4.611-48.66-15.959-67.03-10.311v10.311c25.04,11.955,54.03,29.457,72.19,48.977,22.7-18.543,153.5-39.58,177.8,2.543,32.16-18.41,69.27,5.823,67.11,15.5,12.63-3.684,24.89-6.431,38.94,10.5,11.71-7.109,66.3,12.115,67.04,22,8.54-1.206,18.27-.124,27.01,1,21.92,2.821,35.5,16.849,12.01,18-18.1,11.909-74.07,17.585-88.05,9-17.25,14.241-68.14,20.947-93.04-4-27.58,16.315-76.41-7.668-138.07-30a145.3,145.3,0,0,0-55.28-8.461c14.67,15.5,8.26,31.779-7.74,41.243-34.86,20.626-87.45,26.405-118.59,51.555,53.04,0.962,90.78,22.363,25.78,25.777,9.28,11.9-13.14,17.047-33.51,18.044-11.49-9.126-15.56-13.589-38.67-2.578-41.42,18.286,61.71,106.887,48.98,183.019-14.96,89.47-135.38,167.62,48.98,255.19,40.39,19.19,102.37,65.84,126.33,100.53,19.09,27.66,4.53,61.76,26.73,75.78,215.64,1.36,1550.67.84,1492.72,0,11.69,0.17,8.29,15.02,0,15.01-600.85-.92-2766,0.43-2826.365,0-9.307-.43-10.6-15.03,1-15.01,43.183-.38,187.771-0.48,807.394,1,210.79,0.51,149.94-174.69,155.64-154.11-31.66-114.34-19.91-151.16,10.31-193.33,13.24-18.47,46.25-27.72,30.93-54.13s-102.35-42.858-193.35-38.66c-34.07,1.57-127.952,5.71-110.86,23.2,13.45,17.39,6.88,29.66,5.16,38.66-33.771,19.15-44.26,26.9-121.169,28.36-136.345,2.58-186.682,4.23-306.789-5.16-117.248,41.91-199.089,15.66-213.978,0-16.12,23.22-126.47,40.44-134.059,0-13-.54-33.515-7.73-33.515-7.73s-27.811,9.42-46.4,2.58c-8.752-3.23-20.624-18.05-20.624-18.05s-21.787,2.66-25.781-15.47c4.616-9.92,19.72-14.78,46.405-15.46,59.96-21.1,105.714-27.82,116.013-7.73,3.758-2.73,21.649-4.79,25.78-7.74,54.854-50.922,88.514-41.241,105.7-41.241,6.012-6.881,10.279-18.305,61.873-18.044,87.726-70.1,152.008-30.659,149.527-10.311,44.6-11.916,56.847,6.736,64.452,15.466,7.569-2.025,18.9-.9,25.78,5.156,14.054,0.491,25.5,14.25,23.2,30.934,30.986,31.87-13.6,48.63-30.937,59.29,32.559,0.87,36.427,3.61,103.122,0,75.213-4.08,157.745-4.14,141.793-61.869C930.005,980.983,946.9,970.3,982.117,965c198.553-29.9,320.093,6,342.883,7.733,8.14-14.972,12.08-73.021-69.61-92.8-41.39-10.021-69.6-13.521-100.54-51.555-7.46-1.73-31.22,1.838-59.3-5.155-17.58,6.54-87.49,9.756-118.589-5.156-18.656,4.872-113.616,32.119-221.645-4.253-37.6,3.4-94.905-22.082-71.034-52.008,23.419,6.026,37.886-6.841,70.966,2.129,7.087-8.839,19.74-24.863,56.718-7.733,22.34-.859,71.509-10.5,87.654,5.155,17.949-15.582,30.729-10.04,36.092-7.733,40.724-41.833,72.468-13.663,77.338-2.577,42.71-27.635,62.02-17.384,64.46-5.156,7.12-4.615,11.39-6.141,25.78-5.155-84.64-83.116,86.16-84.482,30.93-146.93-9.13,4.428-41.93,6.876-48.98-5.156-25.63,15.237-68.96,13.966-82.5,0-18.416,9.769-44.068,25.256-134.057,28.355-95.368,35-118.769-7.763-116.013-10.311-63.109-6.128-59.012,11.224-90.232,15.467-68.119,9.258-84.58-15.215-92.81-23.2-23.262,19.061-92.113,17.289-126.324,10.311-42.2-7.9,21.424-37.207,59.3-36.088,46.567-65.21,114.521-53.5,134.059-48.977,25.265-42.475,65.826-6.5,77.341,2.578,17.794-27.493,51.844-51.965,97.967-51.554-8.593-12.547-6.969-24.84,0-30.933-17.746-48.495,19.681-63.128,30.936-56.71-3.456-44.711,42.521-47.96,61.874-43.821-3.3-27.442,24.091-91.729,113.434-69.6,7.72-16.479,40.67-18.837,77.34-7.733-3.06-57.015,76.12-67.134,105.7-56.71,5.39-27.854,42.1-58.309,59.31-57.005-0.92-15.39,21.48-23.041,30.92-17.749,15.91-23.314,69.51-37.722,92.81,7.733C1402.28,135.631,1457.64,129.927,1448.75,183.952ZM1353.36,761.36c9.23-4.209,27.55-29.933,87.65-36.088,29.73-3.044,87.18-13.563,61.87-41.243-17.61-16.906-23.89-20.617-28.35-23.2-17.75,3.721-124.93,17.127-162.42,10.311-45.79-9.571-5.63-32.534-10.31-41.243-3.6-5.17-3.47-5.325-10.32-7.733-24.67,33.151-96.96-7.532-110.85-23.2,31.23,57.184-82.77,81.47-28.36,121.153,10.61-17.874,59.57-25.036,67.03-5.155,14.82-1.795,22.11,2.758,23.2,7.733,64.13,2.484,101.06,1.12,92.81,38.665C1339.75,761.636,1349.49,762.956,1353.36,761.36Zm41.25-141.774c-12.18,8.007-40.11,5.48-59.3,5.155,0.42,9.653-.87,15.8-5.16,23.2,22.29,3.161,94.42,2.129,103.13-12.889-2.08-2.632-.92-0.706-2.58-5.155C1412.25,630.142,1406.12,625.3,1394.61,619.586Zm-95.39,195.907c-4.98,3.315-58.36,11.029-77.34,2.577,10.53,13.246,39.02,16.812,72.18,15.467C1291.22,829.412,1295.77,821.8,1299.22,815.493Z" transform="translate(-103 -112.969)"/>
</svg>
